<?xml version="1.0" encoding="utf-8"?>
<!-- Generator: Adobe Illustrator 16.0.0, SVG Export Plug-In . SVG Version: 6.00 Build 0)  -->
<!DOCTYPE svg PUBLIC "-//W3C//DTD SVG 1.1//EN" "http://www.w3.org/Graphics/SVG/1.1/DTD/svg11.dtd">
<svg version="1.1" id="Capa_1" xmlns="http://www.w3.org/2000/svg" xmlns:xlink="http://www.w3.org/1999/xlink" x="0px" y="0px"
	 width="64px" height="64px" viewBox="0 0 64 64" enable-background="new 0 0 64 64" xml:space="preserve">
<path fill="#FFFFFF" d="M16.236,24.584c0,3.432,1.109,6.677,3.208,9.384c0.01,0.013,0.021,0.026,0.032,0.039
	c4.377,6.076,3.289,8.966,3.289,8.972c-0.234,0.5-0.018,1.095,0.482,1.33c0.137,0.063,0.281,0.094,0.423,0.094
	c0.376,0,0.736-0.213,0.906-0.576c0.181-0.385,1.611-3.963-3.53-11.061c-0.023-0.031-0.046-0.062-0.072-0.09
	c-1.791-2.34-2.737-5.136-2.737-8.093c0-7.348,5.979-13.326,13.326-13.326s13.326,5.978,13.326,13.326
	c0,2.965-0.951,5.772-2.771,8.138c-5.144,7.104-3.656,10.723-3.47,11.113c0.234,0.489,0.812,0.689,1.306,0.468
	c0.494-0.221,0.718-0.809,0.509-1.309c-0.012-0.029-1.158-2.978,3.258-9.076c2.072-2.696,3.168-5.923,3.168-9.333
	c0-8.451-6.875-15.326-15.326-15.326C23.112,9.258,16.236,16.134,16.236,24.584z"/>
<path fill="#FFFFFF" d="M40.488,48.252v-0.85c0-1.355-1.104-2.457-2.457-2.457H24.555c-1.355,0-2.457,1.102-2.457,2.457v0.85
	c0,1.354,1.102,2.457,2.457,2.457h13.477C39.387,50.709,40.488,49.607,40.488,48.252z M24.098,48.252v-0.85
	c0-0.252,0.205-0.457,0.457-0.457h13.477c0.252,0,0.456,0.205,0.456,0.457v0.85c0,0.252-0.204,0.457-0.456,0.457H24.555
	C24.303,48.709,24.098,48.504,24.098,48.252z"/>
<path fill="#FFFFFF" d="M26.174,52.229c-0.553,0-1,0.448-1,1v2.642c0,0.392,0.229,0.747,0.585,0.91l5.389,2.459
	c0.132,0.06,0.273,0.09,0.415,0.09c0.146,0,0.292-0.032,0.427-0.097l5.404-2.549c0.35-0.166,0.572-0.518,0.572-0.904V53.23
	c0-0.553-0.447-1-1-1s-1,0.447-1,1v1.916l-4.411,2.082l-4.382-2V53.23C27.174,52.676,26.727,52.229,26.174,52.229z"/>
<path fill="#FFFFFF" d="M54.859,42.654c0.328-0.444,0.233-1.07-0.211-1.398l-6.783-5.002c-0.445-0.328-1.07-0.234-1.398,0.211
	c-0.328,0.444-0.232,1.07,0.211,1.398l6.784,5.002c0.179,0.132,0.388,0.195,0.593,0.195C54.361,43.061,54.664,42.92,54.859,42.654z"
	/>
<path fill="#FFFFFF" d="M15.111,14.591c0.179,0.132,0.387,0.195,0.593,0.195c0.307,0,0.609-0.141,0.806-0.407
	c0.328-0.444,0.233-1.07-0.211-1.398L9.362,7.867c-0.444-0.329-1.07-0.233-1.398,0.211C7.636,8.523,7.73,9.149,8.175,9.477
	L15.111,14.591z"/>
<path fill="#FFFFFF" d="M15.426,35.91l-7.25,5.346c-0.444,0.328-0.539,0.954-0.211,1.398c0.196,0.266,0.499,0.406,0.806,0.406
	c0.206,0,0.414-0.063,0.593-0.194l7.25-5.347c0.444-0.328,0.539-0.953,0.211-1.397C16.495,35.677,15.87,35.583,15.426,35.91z"/>
<path fill="#FFFFFF" d="M46.975,12.651c-0.445,0.328-0.539,0.954-0.211,1.398c0.195,0.266,0.498,0.407,0.805,0.407
	c0.207,0,0.414-0.064,0.594-0.195l6.488-4.784c0.445-0.328,0.539-0.954,0.211-1.398c-0.327-0.444-0.952-0.54-1.397-0.211
	L46.975,12.651z"/>
<path fill="#FFFFFF" d="M58.791,24.367h-7.648c-0.554,0-1,0.448-1,1c0,0.552,0.446,1,1,1h7.648c0.553,0,1-0.448,1-1
	C59.791,24.815,59.344,24.367,58.791,24.367z"/>
<path fill="#FFFFFF" d="M12.805,25.367c0-0.552-0.447-1-1-1H3.912c-0.553,0-1,0.448-1,1c0,0.552,0.447,1,1,1h7.893
	C12.357,26.367,12.805,25.919,12.805,25.367z"/>
<path fill="#FFFFFF" d="M35.906,21.546v-2.595c0-0.473-0.43-0.857-0.965-0.857h-6.034c-0.538,0-0.97,0.384-0.97,0.857v2.595h-3.713
	v8.329h15.401v-8.329H35.906z M33.979,21.546h-4.108v-1.735h4.108V21.546z"/>
</svg>
