<?xml version="1.0" encoding="utf-8"?>
<!-- Generator: Adobe Illustrator 16.0.0, SVG Export Plug-In . SVG Version: 6.00 Build 0)  -->
<!DOCTYPE svg PUBLIC "-//W3C//DTD SVG 1.1//EN" "http://www.w3.org/Graphics/SVG/1.1/DTD/svg11.dtd">
<svg version="1.1" id="Layer_1" xmlns="http://www.w3.org/2000/svg" xmlns:xlink="http://www.w3.org/1999/xlink" x="0px" y="0px"
	 viewBox="0 0 35.775 22.999" enable-background="new 0 0 35.775 22.999" xml:space="preserve">
<g id="Increase_Volume">
	<path fill="none" stroke="#FFFFFF" stroke-width="1.5" stroke-linecap="round" stroke-linejoin="round" stroke-miterlimit="10" d="
		M29.032,13.708c1.062-0.593,1.782-1.733,1.783-3.044C30.814,9.358,30.1,8.22,29.044,7.625"/>
	<path fill="none" stroke="#FFFFFF" stroke-width="1.5" stroke-linecap="round" stroke-linejoin="round" stroke-miterlimit="10" d="
		M29.591,16.274c1.957-1.092,3.281-3.188,3.281-5.598c0-2.402-1.314-4.495-3.258-5.588"/>
	<path fill="none" stroke="#FFFFFF" stroke-width="1.5" stroke-linecap="round" stroke-linejoin="round" stroke-miterlimit="10" d="
		M30.546,18.409c2.713-1.512,4.55-4.421,4.551-7.765c-0.001-3.332-1.825-6.233-4.521-7.751"/>
	
		<ellipse fill="none" stroke="#FFFFFF" stroke-width="2" stroke-linecap="round" stroke-linejoin="round" stroke-miterlimit="10" cx="23.299" cy="10.316" rx="3.687" ry="9.298"/>
	<path fill="none" stroke="#FFFFFF" stroke-width="2" stroke-linecap="round" stroke-linejoin="round" stroke-miterlimit="10" d="
		M23.298,1.019C22.407,0.846,3.001,6.748,2.404,6.89c-0.597,0.144-1.246,1.521-1.246,3.395c0,1.875,0.75,3.232,1.246,3.396
		c0.496,0.162,19.896,5.947,20.894,5.934"/>
	<path fill="none" stroke="#FFFFFF" stroke-width="2" stroke-linecap="round" stroke-linejoin="round" stroke-miterlimit="10" d="
		M4.681,14.994c-0.748,2.851,0.854,5.876,3.579,6.755c2.723,0.877,5.535-0.721,6.281-3.575"/>
	<path fill="none" stroke="#FFFFFF" stroke-linecap="round" stroke-linejoin="round" stroke-miterlimit="10" d="M6.542,15.409
		c-0.478,1.82,0.545,3.751,2.285,4.312c1.738,0.562,3.533-0.46,4.01-2.281"/>
	<path fill="none" stroke="#FFFFFF" stroke-width="2" stroke-linecap="round" stroke-linejoin="round" stroke-miterlimit="10" d="
		M6.778,5.595c-0.83,0.197-1.731,2.1-1.731,4.692s1.041,4.466,1.731,4.693"/>
	<g>
		<ellipse fill="none" stroke="#FFFFFF" stroke-miterlimit="10" cx="23.575" cy="10.684" rx="0.805" ry="1.878"/>
		
			<line fill="none" stroke="#FFFFFF" stroke-linecap="round" stroke-linejoin="round" stroke-miterlimit="10" x1="23.598" y1="8.783" x2="19.86" y2="7.099"/>
		
			<line fill="none" stroke="#FFFFFF" stroke-linecap="round" stroke-linejoin="round" stroke-miterlimit="10" x1="23.598" y1="12.588" x2="19.86" y2="14.272"/>
	</g>
</g>
</svg>
