<?xml version="1.0" encoding="utf-8"?>
<!-- Generator: Adobe Illustrator 16.0.0, SVG Export Plug-In . SVG Version: 6.00 Build 0)  -->
<!DOCTYPE svg PUBLIC "-//W3C//DTD SVG 1.1//EN" "http://www.w3.org/Graphics/SVG/1.1/DTD/svg11.dtd">
<svg version="1.1" id="Layer_1" xmlns="http://www.w3.org/2000/svg" xmlns:xlink="http://www.w3.org/1999/xlink" x="0px" y="0px"
	 viewBox="0 654.694 768 369.306" enable-background="new 0 654.694 768 369.306"
	 xml:space="preserve">
<polyline points="413.664,985.355 405.771,985.355 405.771,1024.272 413.664,1024.272 413.664,985.355 "/>
<path d="M389.984,985.355h-8.164l-4.354,17.689c-0.544,1.903-1.089,3.807-1.089,5.715c-0.271,1.905-0.544,3.81-0.816,5.721
	c0-1.905-0.544-4.082-0.544-5.987c-0.545-1.904-0.815-3.538-1.36-5.442l-4.354-17.689h-7.892l10.886,38.917h6.531L389.984,985.355"
	/>
<path d="M451.495,992.431c0.813,0,1.633,0.276,2.175,0.545v-7.076c-0.542-0.544-1.361-0.544-2.175-0.819
	c-0.819,0-1.638-0.273-2.449-0.273c-4.901,0-8.983,1.904-11.972,5.718c-2.996,3.54-4.624,8.439-4.624,14.693
	c0,5.718,1.636,10.341,4.624,14.15c3.26,3.538,7.078,5.442,12.246,5.442c0.539,0,1.36-0.274,2.181-0.274
	c0.816-0.273,1.636-0.542,2.177-0.818v-7.62c-0.553,0.283-1.369,0.556-1.913,0.556c-0.818,0.271-1.359,0.271-2.18,0.271
	c-2.449,0-4.624-1.083-6.26-3.264c-1.642-2.445-2.446-5.168-2.446-8.705c0-4.082,0.813-7.081,2.446-9.254
	c1.636-2.445,3.538-3.537,6.26-3.537C450.135,992.158,450.948,992.158,451.495,992.431"/>
<polyline points="472.176,985.355 472.176,1024.272 488.505,1024.272 488.505,1016.651 479.793,1016.651 479.793,1007.671 
	487.688,1007.671 487.688,1000.322 479.793,1000.322 479.793,992.702 488.505,992.702 488.505,985.355 472.176,985.355 "/>
<path d="M518.985,985.355c-1.089-0.275-2.176-0.545-3.265-0.545c-2.992,0-5.441,1.089-7.351,3.266
	c-1.899,1.905-2.993,4.627-2.993,8.165c0,1.905,0.547,3.808,1.36,5.715c1.089,1.64,2.722,3.541,4.9,5.722
	c0.275,0.271,0.813,0.541,1.36,1.083c1.902,1.639,2.997,3.266,2.997,4.626s-0.275,2.178-1.086,2.997
	c-0.816,0.541-1.902,1.086-2.996,1.086c-1.095,0-1.902-0.272-2.997-0.816c-0.818-0.274-1.907-1.089-2.721-1.905v8.164
	c0.813,0.545,1.901,1.089,2.996,1.361c1.086,0.274,2.18,0.544,3.539,0.544c3.538,0,6.261-1.089,8.165-2.996
	c2.178-2.18,2.996-5.168,2.996-8.438c0-2.179-0.273-4.082-1.089-5.443c-0.818-1.633-2.449-3.266-4.9-5.715
	c-2.175-1.639-3.264-2.722-3.806-3.811c-0.547-0.815-0.817-1.634-0.817-2.722c0-1.086,0.271-1.905,1.088-2.722
	c0.542-0.544,1.633-1.086,2.722-1.086c0.542,0,1.36,0.274,1.902,0.542c0.818,0,1.904,0.544,3.266,1.359v-7.069
	C521.162,986.172,520.073,985.626,518.985,985.355"/>
<path d="M566.066,1004.948c0,5.985,1.36,10.888,3.534,14.424c2.449,3.538,5.99,5.443,10.072,5.443c4.354,0,7.617-1.905,10.066-5.443
	c2.446-3.266,3.541-8.164,3.541-13.882c0-6.527-1.089-11.428-3.541-15.243c-2.449-3.537-5.719-5.441-10.066-5.441v7.62
	c2.175,0,3.535,0.818,4.624,2.999c0.819,1.901,1.36,5.165,1.36,9.523c0,4.083-0.541,7.076-1.36,9.248
	c-1.089,1.905-2.449,2.999-4.624,2.999c-1.907,0-3.541-0.818-4.356-2.999c-1.086-1.901-1.36-5.165-1.36-9.248
	c0-4.358,0.275-7.622,1.36-9.523c0.815-2.181,2.44-2.999,4.356-2.999v-7.62c-4.082,0-7.623,1.904-9.8,5.441
	C567.428,993.792,566.066,998.69,566.066,1004.948"/>
<polyline points="174.174,992.702 174.174,985.355 157.846,985.355 157.846,1024.272 174.174,1024.272 174.174,1016.651 
	165.466,1016.651 165.466,1007.671 173.358,1007.671 173.358,1000.322 165.466,1000.322 165.466,992.702 174.174,992.702 "/>
<path d="M192.953,985.355v38.917h7.62v-16.057l0.272-5.985h-0.272v-10.886h0.272c0.275,0,0.275,0,0.544,0
	c1.905,0,2.994,0.542,3.81,1.36c0.816,0.816,1.086,2.178,1.086,4.082c0,1.634-0.272,3.264-1.086,4.082
	c-1.089,1.083-2.18,1.36-3.81,1.36c-0.272,0-0.272,0-0.544,0l-0.272,5.985l6.259,16.057h8.165l-7.62-17.689
	c2.177-0.815,3.807-1.634,4.626-3.538c1.086-1.636,1.633-3.811,1.633-6.804c0-3.811-1.089-6.532-2.994-8.165
	c-1.905-1.904-5.171-2.721-9.525-2.721L192.953,985.355"/>
<polyline points="299.362,1000.322 299.362,992.702 308.071,992.702 308.071,985.355 291.742,985.355 291.742,1024.272 
	308.071,1024.272 308.071,1016.651 299.362,1016.651 299.362,1007.671 307.255,1007.671 307.255,1000.322 299.362,1000.322 "/>
<path d="M272.147,986.716c-1.089-0.544-2.177-1.089-3.266-1.36c-1.086-0.275-2.177-0.545-3.266-0.545
	c-2.994,0-5.443,1.089-7.345,3.266c-1.905,1.905-2.996,4.627-2.996,8.165c0,1.905,0.544,3.808,1.36,5.715
	c1.089,1.64,2.722,3.541,4.899,5.722c0.275,0.271,0.819,0.541,1.361,1.083c1.905,1.639,2.996,3.266,2.996,4.626
	s-0.275,2.178-1.088,2.997c-0.816,0.541-1.905,1.086-2.994,1.086c-1.089,0-1.905-0.272-2.997-0.816
	c-0.816-0.274-1.902-1.089-2.721-1.904v8.163c0.819,0.546,1.905,1.09,2.996,1.361c1.086,0.271,2.175,0.544,3.535,0.544
	c3.538,0,6.26-1.089,8.165-2.996c2.177-2.18,2.994-5.168,2.994-8.438c0-2.177-0.272-4.082-1.086-5.443
	c-0.816-1.633-2.449-3.266-4.898-5.715c-2.18-1.639-3.266-2.722-3.81-3.81c-0.544-0.816-0.816-1.634-0.816-2.723
	c0-1.086,0.272-1.905,1.085-2.722c0.544-0.544,1.636-1.086,2.722-1.086c0.544,0,1.361,0.274,1.905,0.542
	c0.816,0,1.905,0.544,3.266,1.359L272.147,986.716"/>
<path d="M341.272,1006.582c2.178-0.815,3.808-1.634,4.624-3.538c1.089-1.636,1.636-3.811,1.636-6.804
	c0-3.811-1.089-6.532-2.996-8.165c-1.902-1.903-5.168-2.721-9.525-2.721h-8.164v38.917h7.622v-16.057l0.272-5.985h-0.272v-10.886
	h0.272c0.271,0,0.271,0,0.544,0c1.905,0,2.994,0.542,3.808,1.36c0.819,0.816,1.089,2.178,1.089,4.082
	c0,1.633-0.271,3.264-1.089,4.082c-0.815,1.083-2.177,1.36-3.808,1.36c-0.274,0-0.274,0-0.544,0l-0.272,5.985l6.26,16.054h8.164
	L341.272,1006.582"/>
<path d="M26.67,985.899c-0.544-0.544-1.361-0.544-2.177-0.819c-0.816,0-1.633-0.273-2.449-0.273c-4.898,0-8.981,1.904-11.975,5.718
	c-2.994,3.54-4.626,8.439-4.626,14.698c0,5.718,1.633,10.342,4.626,14.151c3.266,3.537,7.076,5.442,12.247,5.442
	c0.544,0,1.361-0.273,2.177-0.273c0.816-0.275,1.633-0.542,2.177-0.819v-7.62c-0.544,0.277-1.361,0.55-1.905,0.55
	c-0.816,0.271-1.361,0.271-2.177,0.271c-2.722,0-4.626-1.083-6.26-3.264c-1.633-2.445-2.449-5.168-2.449-8.705
	c0-4.082,0.816-7.081,2.449-9.254c1.633-2.445,3.538-3.537,6.26-3.537c0.544,0,1.361,0,1.905,0.271c0.816,0,1.633,0.277,2.177,0.544
	V985.899"/>
<path d="M59.056,985.355h-8.165l-8.981,38.917h7.62l1.361-6.804h7.62l-1.089-5.987h-5.17c0.544-3.264,1.088-6.26,1.361-9.248
	c0.544-2.999,0.816-5.987,1.36-8.708c0.272,3.266,0.544,6.259,1.089,9.25c0.272,2.996,0.816,5.984,1.36,8.706l1.089,5.987
	l1.361,6.804h7.892L59.056,985.355"/>
<path d="M84.094,985.355v38.917h7.348v-16.057l0.544-5.985c0,0-0.272,0-0.544,0v-10.886c0.272,0,0.544,0,0.544,0
	c0.272,0,0.272,0,0.544,0c1.633,0,2.994,0.542,3.81,1.36c0.544,0.816,1.088,2.178,1.088,4.082c0,1.634-0.544,3.264-1.088,4.082
	c-0.816,1.083-2.177,1.36-3.81,1.36c-0.272,0-0.272,0-0.544,0l-0.544,5.985l6.532,16.057h8.165l-7.62-17.689
	c2.177-0.815,3.81-1.634,4.626-3.538c1.088-1.636,1.633-3.811,1.633-6.804c0-3.811-1.089-6.532-2.994-8.165
	c-2.177-1.904-5.171-2.721-9.525-2.721L84.094,985.355"/>
<polyline points="138.251,1000.322 130.358,1000.322 130.358,992.702 139.067,992.702 139.067,985.355 122.738,985.355 
	122.738,1024.272 139.067,1024.272 139.067,1016.651 130.358,1016.651 130.358,1007.671 138.251,1007.671 138.251,1000.322 "/>
<polyline points="627.844,1000.596 619.407,1000.596 619.407,992.702 628.66,992.702 628.66,985.355 611.784,985.355 
	611.784,1024.272 619.407,1024.272 619.407,1007.671 627.844,1007.671 627.844,1000.596 "/>
<polyline points="689.624,985.355 681.729,985.355 681.729,1024.272 689.624,1024.272 689.624,985.355 "/>
<polyline points="654.245,1000.596 654.245,992.702 663.492,992.702 663.492,985.355 646.622,985.355 646.622,1024.272 
	654.245,1024.272 654.245,1007.671 662.679,1007.671 662.679,1000.596 654.245,1000.596 "/>
<path d="M729.627,992.976v-7.076c-0.541-0.544-1.36-0.544-2.18-0.819c-0.813,0-1.633-0.273-2.444-0.273
	c-4.901,0-8.982,1.904-11.974,5.718c-2.994,3.54-4.63,8.439-4.63,14.693c0,5.718,1.642,10.341,4.63,14.15
	c3.263,3.538,7.078,5.442,11.974,5.442c0.814,0,1.634-0.274,2.444-0.274c0.818-0.273,1.639-0.542,2.18-0.818v-7.62
	c-0.541,0.275-1.36,0.545-1.902,0.545c-0.818,0.271-1.359,0.271-2.18,0.271c-2.449,0-4.624-1.082-6.262-3.263
	c-1.633-2.446-2.444-5.168-2.444-8.706c0-4.082,0.813-7.081,2.444-9.253c1.638-2.447,3.54-3.538,6.262-3.538
	c0.542,0,1.36,0,1.902,0.272C728.267,992.431,729.086,992.702,729.627,992.976"/>
<polyline points="748.136,985.355 748.136,1024.272 764.465,1024.272 764.465,1016.651 755.753,1016.651 755.753,1007.671 
	763.646,1007.671 763.646,1000.322 755.753,1000.322 755.753,992.702 764.465,992.702 764.465,985.355 748.136,985.355 "/>
<path fill="#2D5CA2" d="M640.907,654.695c-0.275,0-0.819,0-1.089,0H510.82v33.747h128.182c0.28,0,0.547,0,0.822,0
	c26.129,0,48.443,9.25,67.215,28.034c18.512,18.506,27.495,40.822,27.495,66.949c0,0.273,0,0.273,0,0.273
	c0,26.129-9.25,48.445-27.495,66.951c-18.771,18.506-41.095,27.759-67.215,27.759c-26.396,0-48.712-9.253-67.218-27.759
	c-18.516-18.515-27.769-40.83-27.769-66.957h-33.746c0.28,35.38,12.794,65.591,37.563,90.352
	c25.308,25.04,55.513,37.56,90.893,37.56h0.271c35.379,0,65.588-12.521,90.628-37.56C755.481,849.28,768,819.072,768,783.692
	c0,0,0-0.273,0-0.541c0-35.379-12.519-65.593-37.554-90.896C705.676,667.759,676.017,655.239,640.907,654.695"/>
<path d="M128.182,654.695c-34.835,0.544-64.771,13.063-89.265,37.558C13.879,717.29,1.361,747.227,1.088,782.061
	c0,0.545,0,0.816,0,1.089c0,0.273,0,0.542,0,0.542c0,0.541,0,0.819,0,1.086c0.272,35.106,12.791,65.043,37.829,89.81
	c24.493,24.768,54.43,37.283,89.265,37.556c0.544,0,0.816,0,1.36,0h128.726v-33.469l-127.91-0.271c-0.272,0-0.544,0-0.816,0
	c-26.398,0-48.714-9.253-67.22-27.759c-18.234-18.234-27.487-40.278-27.759-65.86c0-0.271,0-0.544,0-1.086c0,0,0,0,0-0.273
	c0,0,0,0,0-0.272c0-0.276,0-0.544,0-1.089c0.272-25.581,9.525-47.353,27.759-65.587c18.506-18.778,40.822-28.034,67.22-28.034
	c0.272,0,0.544,0,0.816,0h127.91v-33.744H129.542C128.998,654.695,128.726,654.695,128.182,654.695"/>
<path fill="#A8A9AB" d="M406.86,692.524c-8.439,8.165-15.516,17.148-20.958,26.94C375.016,738.242,369.3,759.2,369.3,782.603
	l-0.273,0.271c0,26.398-9.25,48.715-27.757,67.221c-17.959,17.691-39.187,26.944-63.952,27.762h-2.45c-0.272,0-0.544,0-0.816,0
	v33.747h3.266c32.113-0.545,60.145-11.975,83.549-33.475c1.36-1.36,2.722-2.723,4.082-4.082
	c25.035-25.035,37.56-55.246,37.56-90.893c0,0,0-0.277,0-0.545v-1.088c0.272-25.577,9.525-47.626,28.028-65.588
	c18.509-18.778,40.822-28.031,66.948-28.031v-33.208C462.104,654.695,431.896,667.486,406.86,692.524"/>
<polyline fill="#2D5CA2" points="510.549,930.926 510.549,964.399 767.729,964.399 767.729,930.926 510.549,930.926 "/>
<polyline fill="#A8A9AB" points="499.391,964.399 499.391,930.926 274.869,930.926 274.869,964.399 499.391,964.399 "/>
<polyline points="258.54,964.399 258.54,930.926 0,930.926 0,964.399 258.54,964.399 "/>
<path fill="#231F20" d="M600.604,755.557c1.758,0.373,3.076,0.966,3.947,1.791c1.206,1.149,1.813,2.55,1.813,4.21
	c0,1.257-0.397,2.46-1.2,3.616c-0.797,1.156-1.886,1.991-3.279,2.522c-1.394,0.53-3.508,0.797-6.361,0.797h-11.971v-0.688h0.956
	c1.062,0,1.817-0.337,2.283-1.016c0.283-0.436,0.427-1.36,0.427-2.778v-16.386c0-1.57-0.171-2.559-0.539-2.973
	c-0.485-0.547-1.211-0.822-2.171-0.822h-0.956v-0.693h10.954c2.047,0,3.688,0.151,4.924,0.452c1.875,0.445,3.305,1.237,4.283,2.381
	c0.982,1.14,1.474,2.446,1.474,3.935c0,1.274-0.385,2.412-1.154,3.416C603.256,754.32,602.112,755.062,600.604,755.557
	L600.604,755.557z M590.799,754.54c0.469,0.089,0.988,0.155,1.584,0.196c0.598,0.041,1.244,0.063,1.957,0.063
	c1.818,0,3.189-0.19,4.104-0.592c0.919-0.392,1.622-0.992,2.104-1.807c0.484-0.803,0.729-1.689,0.729-2.656
	c0-1.482-0.607-2.742-1.813-3.793c-1.211-1.048-2.978-1.569-5.294-1.569c-1.249,0-2.364,0.133-3.369,0.404v9.753H590.799
	L590.799,754.54z M590.799,766.662c1.451,0.337,2.883,0.51,4.284,0.51c2.259,0,3.976-0.513,5.163-1.532
	c1.184-1.017,1.771-2.271,1.771-3.765c0-0.981-0.271-1.936-0.809-2.844c-0.536-0.912-1.41-1.628-2.615-2.149
	c-1.206-0.522-2.705-0.784-4.481-0.784c-0.775,0-1.439,0.012-1.984,0.033c-0.547,0.029-0.987,0.067-1.328,0.133V766.662
	L590.799,766.662z"/>
<path fill="#231F20" d="M636.262,768.491h-6.771l-8.589-11.85c-0.631,0.019-1.148,0.029-1.552,0.029c-0.16,0-0.329,0-0.518-0.006
	c-0.185-0.006-0.381-0.014-0.588-0.023v7.367c0,1.595,0.18,2.582,0.524,2.975c0.479,0.55,1.188,0.824,2.132,0.824h0.992v0.688
	H611.03v-0.688h0.953c1.077,0,1.84-0.35,2.302-1.048c0.265-0.393,0.396-1.31,0.396-2.751v-16.387c0-1.595-0.177-2.588-0.521-2.972
	c-0.484-0.547-1.211-0.822-2.169-0.822h-0.955v-0.693h9.242c2.693,0,4.678,0.189,5.954,0.591c1.278,0.392,2.359,1.11,3.25,2.163
	c0.887,1.063,1.333,2.313,1.333,3.773c0,1.559-0.507,2.912-1.526,4.062c-1.016,1.144-2.583,1.957-4.714,2.428l5.235,7.283
	c1.192,1.668,2.222,2.778,3.081,3.331c0.862,0.544,1.983,0.893,3.372,1.048v0.678H636.262L636.262,768.491z M618.242,755.458
	c0.245,0,0.447,0,0.624,0.006c0.171,0.006,0.317,0.014,0.43,0.014c2.414,0,4.243-0.52,5.47-1.567
	c1.233-1.051,1.841-2.382,1.841-4.006c0-1.584-0.495-2.874-1.482-3.865c-0.988-0.984-2.309-1.485-3.938-1.485
	c-0.724,0-1.7,0.123-2.938,0.358v10.547L618.242,755.458L618.242,755.458z"/>
<path fill="#231F20" d="M655.361,760.004h-9.816l-1.718,4.006c-0.43,0.979-0.637,1.717-0.637,2.207c0,0.386,0.186,0.727,0.547,1.018
	c0.373,0.291,1.159,0.49,2.387,0.574v0.688h-7.984v-0.688c1.06-0.188,1.744-0.437,2.053-0.734c0.643-0.594,1.345-1.813,2.113-3.645
	l8.925-20.871h0.646l8.826,21.092c0.716,1.698,1.354,2.792,1.935,3.301c0.588,0.51,1.396,0.792,2.435,0.853v0.688h-10.017v-0.688
	c1.009-0.051,1.696-0.224,2.054-0.511c0.355-0.283,0.532-0.63,0.532-1.044c0-0.553-0.256-1.418-0.751-2.602L655.361,760.004
	L655.361,760.004z M654.836,758.617l-4.301-10.246l-4.411,10.246H654.836L654.836,758.617z"/>
<path fill="#231F20" d="M688.555,742.556l0.58,8.619h-0.58c-0.771-2.58-1.875-4.441-3.307-5.579
	c-1.436-1.132-3.151-1.701-5.16-1.701c-1.688,0-3.211,0.424-4.565,1.285c-1.36,0.852-2.432,2.212-3.206,4.088
	c-0.781,1.872-1.174,4.199-1.174,6.975c0,2.297,0.37,4.284,1.105,5.97c0.737,1.679,1.839,2.972,3.325,3.868
	c1.47,0.901,3.153,1.349,5.046,1.349c1.646,0,3.103-0.353,4.368-1.063c1.254-0.705,2.642-2.099,4.142-4.192l0.585,0.372
	c-1.272,2.259-2.762,3.914-4.452,4.959c-1.7,1.048-3.707,1.566-6.05,1.566c-4.199,0-7.451-1.557-9.759-4.681
	c-1.718-2.319-2.578-5.046-2.578-8.191c0-2.527,0.569-4.857,1.696-6.976c1.138-2.12,2.705-3.765,4.69-4.932
	c1.989-1.161,4.158-1.744,6.521-1.744c1.834,0,3.646,0.442,5.424,1.339c0.525,0.277,0.898,0.414,1.121,0.414
	c0.335,0,0.624-0.123,0.877-0.357c0.321-0.334,0.555-0.808,0.696-1.401h0.649v0.015L688.555,742.556L688.555,742.556z"/>
<path fill="#231F20" d="M577.181,776.203v-0.439h5.667v0.439h-0.609c-0.623,0-1.107,0.266-1.442,0.787
	c-0.168,0.247-0.253,0.812-0.253,1.7v6.488c0,1.61-0.163,2.854-0.479,3.733c-0.313,0.885-0.95,1.646-1.873,2.28
	c-0.938,0.631-2.204,0.952-3.806,0.952c-1.744,0-3.071-0.299-3.976-0.911c-0.903-0.606-1.54-1.418-1.924-2.438
	c-0.251-0.702-0.379-2.013-0.379-3.941v-6.256c0-0.979-0.134-1.625-0.408-1.934c-0.268-0.302-0.707-0.457-1.313-0.457h-0.602v-0.44
	h6.915v0.44h-0.617c-0.659,0-1.133,0.201-1.418,0.623c-0.193,0.283-0.294,0.874-0.294,1.765v6.975c0,0.621,0.057,1.331,0.171,2.134
	c0.112,0.802,0.319,1.425,0.621,1.873c0.297,0.448,0.729,0.821,1.293,1.107c0.563,0.291,1.254,0.438,2.073,0.438
	c1.048,0,1.983-0.229,2.806-0.686c0.822-0.454,1.394-1.039,1.695-1.755c0.303-0.713,0.452-1.916,0.452-3.614v-6.482
	c0-0.992-0.111-1.621-0.329-1.872c-0.309-0.344-0.766-0.515-1.372-0.515h-0.603v0.005H577.181z"/>
<path fill="#231F20" d="M582.784,775.764h4.344l9.786,12.002v-9.229c0-0.981-0.116-1.601-0.329-1.84
	c-0.294-0.33-0.751-0.498-1.382-0.498h-0.563v-0.44h5.571v0.44h-0.568c-0.676,0-1.153,0.201-1.439,0.615
	c-0.171,0.25-0.256,0.824-0.256,1.723v13.484h-0.424l-10.547-12.884v9.854c0,0.982,0.102,1.596,0.313,1.84
	c0.297,0.329,0.765,0.498,1.383,0.498h0.563v0.437h-5.565v-0.437h0.553c0.687,0,1.17-0.2,1.456-0.62
	c0.171-0.247,0.255-0.824,0.255-1.718v-11.131c-0.462-0.541-0.817-0.896-1.059-1.077c-0.239-0.172-0.593-0.327-1.056-0.483
	c-0.229-0.065-0.574-0.102-1.042-0.102L582.784,775.764L582.784,775.764z"/>
<path fill="#231F20" d="M608.013,791.326v0.437h-6.857v-0.437h0.568c0.658,0,1.139-0.189,1.435-0.579
	c0.189-0.253,0.283-0.854,0.283-1.814v-10.342c0-0.812-0.058-1.343-0.157-1.604c-0.077-0.192-0.24-0.367-0.485-0.506
	c-0.345-0.191-0.707-0.283-1.08-0.283h-0.567v-0.44h6.859v0.44h-0.577c-0.652,0-1.126,0.19-1.423,0.574
	c-0.192,0.258-0.294,0.857-0.294,1.814v10.342c0,0.812,0.058,1.345,0.158,1.604c0.076,0.193,0.244,0.364,0.495,0.509
	c0.34,0.188,0.696,0.283,1.075,0.283L608.013,791.326L608.013,791.326z"/>
<path fill="#231F20" d="M625.754,775.764v0.439c-0.563,0.1-0.993,0.283-1.287,0.536c-0.414,0.391-0.781,0.979-1.104,1.771
	l-5.581,13.616h-0.437l-5.995-13.794c-0.308-0.706-0.521-1.14-0.647-1.298c-0.195-0.245-0.437-0.436-0.729-0.567
	c-0.284-0.147-0.669-0.228-1.158-0.271v-0.44h6.533v0.44c-0.739,0.065-1.219,0.193-1.441,0.375
	c-0.218,0.181-0.329,0.411-0.329,0.697c0,0.397,0.183,1.01,0.547,1.84l4.063,9.381l3.776-9.259c0.373-0.914,0.559-1.546,0.559-1.898
	c0-0.228-0.111-0.446-0.341-0.653c-0.233-0.204-0.619-0.354-1.162-0.441c-0.041-0.005-0.105-0.019-0.192-0.035v-0.439H625.754
	L625.754,775.764z"/>
<path fill="#231F20" d="M631.102,776.64v6.322h3.515c0.914,0,1.521-0.14,1.829-0.408c0.407-0.365,0.637-0.996,0.686-1.913h0.436
	v5.57h-0.436c-0.111-0.775-0.224-1.281-0.329-1.503c-0.145-0.274-0.379-0.489-0.697-0.645c-0.322-0.161-0.818-0.237-1.487-0.237
	h-3.515v5.274c0,0.71,0.033,1.141,0.091,1.293c0.063,0.16,0.174,0.28,0.328,0.37c0.161,0.084,0.464,0.136,0.898,0.136h2.716
	c0.898,0,1.563-0.063,1.975-0.189c0.407-0.123,0.797-0.37,1.175-0.737c0.49-0.49,0.988-1.224,1.5-2.207h0.477l-1.38,4.011h-12.328
	v-0.436h0.568c0.373,0,0.731-0.091,1.078-0.274c0.25-0.128,0.416-0.311,0.512-0.566c0.089-0.253,0.133-0.765,0.133-1.543v-10.391
	c0-1.018-0.101-1.641-0.302-1.875c-0.283-0.313-0.751-0.471-1.415-0.471h-0.569v-0.446h12.331l0.173,3.5h-0.464
	c-0.169-0.841-0.346-1.418-0.544-1.733c-0.202-0.311-0.498-0.553-0.893-0.719c-0.313-0.117-0.866-0.177-1.663-0.177h-4.39v-0.006
	H631.102L631.102,776.64z"/>
<path fill="#231F20" d="M657.141,791.763h-4.271l-5.416-7.479c-0.397,0.015-0.725,0.022-0.982,0.022c-0.095,0-0.207,0-0.323-0.006
	c-0.116-0.003-0.239-0.009-0.372-0.018v4.648c0,1.004,0.116,1.633,0.328,1.875c0.303,0.343,0.755,0.515,1.351,0.515h0.626v0.437
	h-6.858v-0.437h0.603c0.675,0,1.159-0.218,1.451-0.659c0.166-0.243,0.25-0.823,0.25-1.734v-10.342c0-1.006-0.111-1.632-0.329-1.873
	c-0.309-0.344-0.766-0.515-1.372-0.515h-0.603v-0.44h5.832c1.701,0,2.95,0.128,3.759,0.381c0.804,0.245,1.488,0.702,2.053,1.364
	c0.558,0.666,0.841,1.456,0.841,2.378c0,0.979-0.313,1.834-0.958,2.559c-0.643,0.724-1.633,1.229-2.982,1.532l3.308,4.588
	c0.748,1.062,1.403,1.759,1.945,2.104c0.536,0.342,1.249,0.563,2.125,0.659v0.441H657.141z M645.773,783.54
	c0.156,0,0.284,0,0.396,0.004c0.112,0.006,0.199,0.009,0.275,0.009c1.525,0,2.675-0.33,3.45-0.988
	c0.775-0.656,1.164-1.505,1.164-2.525c0-0.999-0.313-1.813-0.94-2.438c-0.623-0.623-1.45-0.939-2.481-0.939
	c-0.458,0-1.074,0.076-1.855,0.228v6.65H645.773L645.773,783.54z"/>
<path fill="#231F20" d="M668.008,775.403v5.533h-0.436c-0.149-1.064-0.397-1.908-0.763-2.54c-0.364-0.631-0.888-1.132-1.563-1.502
	s-1.372-0.553-2.099-0.553c-0.819,0-1.494,0.251-2.03,0.746c-0.53,0.504-0.803,1.071-0.803,1.705c0,0.484,0.172,0.935,0.512,1.328
	c0.49,0.598,1.646,1.38,3.476,2.359c1.499,0.803,2.521,1.418,3.063,1.851c0.547,0.429,0.972,0.938,1.266,1.518
	c0.297,0.585,0.446,1.19,0.446,1.831c0,1.208-0.474,2.251-1.415,3.13c-0.944,0.876-2.147,1.313-3.625,1.313
	c-0.469,0-0.904-0.041-1.313-0.105c-0.243-0.04-0.747-0.18-1.516-0.43c-0.77-0.25-1.254-0.373-1.456-0.373
	c-0.195,0-0.351,0.058-0.468,0.172c-0.111,0.117-0.196,0.36-0.256,0.736h-0.437v-5.488h0.437c0.204,1.15,0.483,2.003,0.83,2.577
	c0.346,0.568,0.871,1.042,1.59,1.418c0.707,0.378,1.488,0.567,2.335,0.567c0.982,0,1.758-0.264,2.323-0.778
	c0.577-0.517,0.854-1.129,0.854-1.842c0-0.396-0.105-0.792-0.324-1.191c-0.218-0.399-0.553-0.772-1.01-1.115
	c-0.3-0.237-1.143-0.738-2.509-1.508c-1.372-0.766-2.344-1.377-2.923-1.835c-0.58-0.457-1.016-0.963-1.314-1.514
	c-0.289-0.55-0.44-1.158-0.44-1.819c0-1.146,0.436-2.131,1.313-2.964c0.883-0.83,1.998-1.244,3.364-1.244
	c0.853,0,1.752,0.204,2.699,0.623c0.439,0.195,0.754,0.294,0.931,0.294c0.207,0,0.379-0.061,0.509-0.178
	c0.128-0.128,0.234-0.375,0.312-0.736h0.436v0.014H668.008z"/>
<path fill="#231F20" d="M677.824,791.326v0.437h-6.858v-0.437h0.563c0.664,0,1.143-0.189,1.438-0.579
	c0.184-0.253,0.283-0.854,0.283-1.814v-10.342c0-0.812-0.055-1.343-0.155-1.604c-0.079-0.192-0.245-0.367-0.483-0.506
	c-0.347-0.191-0.713-0.283-1.089-0.283h-0.563v-0.44h6.861v0.44h-0.58c-0.653,0-1.126,0.19-1.426,0.574
	c-0.19,0.258-0.298,0.857-0.298,1.814v10.342c0,0.812,0.056,1.345,0.155,1.604c0.079,0.193,0.245,0.364,0.495,0.509
	c0.341,0.188,0.697,0.283,1.078,0.283L677.824,791.326L677.824,791.326z"/>
<path fill="#231F20" d="M692.392,775.764l0.173,3.756h-0.452c-0.076-0.659-0.198-1.13-0.352-1.418
	c-0.245-0.452-0.568-0.787-0.969-1.005c-0.403-0.218-0.939-0.323-1.601-0.323h-2.254v12.225c0,0.982,0.105,1.596,0.318,1.841
	c0.294,0.329,0.756,0.498,1.377,0.498h0.559v0.436h-6.782v-0.436h0.568c0.676,0,1.153-0.201,1.433-0.621
	c0.171-0.247,0.264-0.824,0.264-1.718v-12.225h-1.924c-0.743,0-1.276,0.057-1.59,0.168c-0.413,0.15-0.759,0.438-1.057,0.857
	c-0.288,0.425-0.463,0.999-0.517,1.726h-0.447l0.191-3.756L692.392,775.764L692.392,775.764z"/>
<path fill="#231F20" d="M704.682,775.764h5.582v0.439h-0.308c-0.201,0-0.501,0.085-0.897,0.272c-0.39,0.18-0.739,0.438-1.069,0.775
	c-0.318,0.338-0.718,0.888-1.191,1.651l-3.858,6.074v4.014c0,0.982,0.105,1.596,0.328,1.84c0.295,0.329,0.769,0.498,1.415,0.498
	h0.521v0.437h-6.799v-0.437h0.568c0.675,0,1.159-0.2,1.439-0.62c0.172-0.247,0.262-0.824,0.262-1.718v-3.791l-4.39-6.703
	c-0.516-0.782-0.871-1.277-1.061-1.472c-0.188-0.196-0.567-0.436-1.147-0.711c-0.157-0.081-0.393-0.116-0.687-0.116v-0.44h6.849
	v0.44h-0.356c-0.373,0-0.708,0.078-1.021,0.258c-0.313,0.176-0.47,0.435-0.47,0.778c0,0.283,0.24,0.795,0.726,1.532l3.339,5.16
	l3.135-4.935c0.475-0.739,0.708-1.29,0.708-1.651c0-0.218-0.055-0.414-0.172-0.591c-0.111-0.172-0.277-0.306-0.489-0.402
	c-0.213-0.096-0.53-0.147-0.961-0.147L704.682,775.764L704.682,775.764z"/>
<polyline fill="#295CA8" stroke="#295CA8" stroke-width="3.000000e-004" stroke-linejoin="bevel" stroke-miterlimit="2.6131" points="
	689.469,802.161 682.401,803.87 675.486,806.045 668.739,808.662 662.191,811.72 655.856,815.194 649.758,819.089 643.917,823.381 
	638.357,828.072 632.797,823.381 626.957,819.089 620.858,815.194 614.521,811.72 607.975,808.662 601.229,806.045 594.308,803.87 
	587.245,802.161 587.245,808.897 590.53,809.612 593.776,810.45 596.988,811.405 600.156,812.479 603.274,813.659 606.347,814.954 
	609.373,816.361 612.337,817.884 615.246,819.506 618.096,821.235 620.88,823.07 623.596,825.012 626.244,827.05 628.821,829.188 
	631.325,831.426 633.744,833.761 633.807,833.831 633.866,833.899 633.924,833.973 633.979,834.047 634.03,834.128 634.073,834.206 
	634.109,834.285 634.152,834.369 634.186,834.456 634.212,834.541 634.236,834.632 634.259,834.722 634.275,834.812 
	634.286,834.903 634.291,834.995 634.291,835.089 634.291,836.778 634.297,836.873 634.302,836.972 634.318,837.066 
	634.332,837.156 634.349,837.249 634.376,837.337 634.408,837.427 634.44,837.511 634.477,837.593 634.52,837.672 634.561,837.753 
	634.615,837.828 634.664,837.902 634.721,837.977 634.781,838.038 634.844,838.108 634.906,838.166 634.977,838.227 
	635.045,838.283 635.121,838.338 635.194,838.385 635.273,838.434 635.358,838.469 635.439,838.51 635.524,838.545 635.608,838.568 
	635.704,838.597 635.791,838.618 635.886,838.635 635.976,838.646 636.076,838.653 636.166,838.655 638.357,838.655 
	640.542,838.655 640.638,838.653 640.738,838.646 640.828,838.635 640.924,838.618 641.016,838.597 641.105,838.568 641.19,838.545 
	641.274,838.51 641.361,838.469 641.44,838.434 641.52,838.385 641.593,838.338 641.664,838.283 641.737,838.227 641.808,838.166 
	641.87,838.108 641.934,838.038 641.993,837.977 642.045,837.902 642.1,837.828 642.153,837.753 642.194,837.672 642.238,837.593 
	642.273,837.511 642.306,837.427 642.339,837.337 642.36,837.249 642.382,837.156 642.401,837.066 642.412,836.972 642.418,836.873 
	642.423,836.778 642.423,835.089 642.423,834.995 642.429,834.903 642.439,834.812 642.456,834.722 642.479,834.632 
	642.502,834.541 642.529,834.456 642.563,834.369 642.6,834.285 642.641,834.206 642.689,834.128 642.736,834.047 642.79,833.973 
	642.842,833.899 642.907,833.831 642.97,833.761 645.395,831.426 647.894,829.188 650.471,827.05 653.118,825.012 655.834,823.07 
	658.618,821.235 661.468,819.506 664.377,817.884 667.346,816.361 670.361,814.954 673.439,813.659 676.559,812.479 
	679.727,811.405 682.938,810.45 686.185,809.612 689.469,808.897 689.469,802.161 "/>
<polygon fill="#295CA8" stroke="#295CA8" stroke-width="3.000000e-004" stroke-linejoin="bevel" stroke-miterlimit="2.6131" points="
	640.738,838.646 640.542,838.655 640.542,838.655 638.357,838.655 "/>
<polygon fill="#295CA8" stroke="#295CA8" stroke-width="3.000000e-004" stroke-linejoin="bevel" stroke-miterlimit="2.6131" points="
	640.738,838.646 638.357,838.655 638.357,838.655 636.166,838.655 "/>
<polygon fill="#295CA8" stroke="#295CA8" stroke-width="3.000000e-004" stroke-linejoin="bevel" stroke-miterlimit="2.6131" points="
	635.976,838.646 640.738,838.646 640.738,838.646 636.166,838.655 "/>
<polygon fill="#295CA8" stroke="#295CA8" stroke-width="3.000000e-004" stroke-linejoin="bevel" stroke-miterlimit="2.6131" points="
	635.791,838.618 640.738,838.646 640.738,838.646 635.976,838.646 "/>
<polygon fill="#295CA8" stroke="#295CA8" stroke-width="3.000000e-004" stroke-linejoin="bevel" stroke-miterlimit="2.6131" points="
	640.924,838.618 640.738,838.646 640.738,838.646 635.791,838.618 "/>
<polygon fill="#295CA8" stroke="#295CA8" stroke-width="3.000000e-004" stroke-linejoin="bevel" stroke-miterlimit="2.6131" points="
	635.608,838.568 640.924,838.618 640.924,838.618 635.791,838.618 "/>
<polygon fill="#295CA8" stroke="#295CA8" stroke-width="3.000000e-004" stroke-linejoin="bevel" stroke-miterlimit="2.6131" points="
	641.105,838.568 640.924,838.618 640.924,838.618 635.608,838.568 "/>
<polygon fill="#295CA8" stroke="#295CA8" stroke-width="3.000000e-004" stroke-linejoin="bevel" stroke-miterlimit="2.6131" points="
	635.439,838.51 641.105,838.568 641.105,838.568 635.608,838.568 "/>
<polygon fill="#295CA8" stroke="#295CA8" stroke-width="3.000000e-004" stroke-linejoin="bevel" stroke-miterlimit="2.6131" points="
	641.274,838.51 641.105,838.568 641.105,838.568 635.439,838.51 "/>
<polygon fill="#295CA8" stroke="#295CA8" stroke-width="3.000000e-004" stroke-linejoin="bevel" stroke-miterlimit="2.6131" points="
	635.273,838.434 641.274,838.51 641.274,838.51 635.439,838.51 "/>
<polygon fill="#295CA8" stroke="#295CA8" stroke-width="3.000000e-004" stroke-linejoin="bevel" stroke-miterlimit="2.6131" points="
	641.44,838.434 641.274,838.51 641.274,838.51 635.273,838.434 "/>
<polygon fill="#295CA8" stroke="#295CA8" stroke-width="3.000000e-004" stroke-linejoin="bevel" stroke-miterlimit="2.6131" points="
	635.121,838.338 641.44,838.434 641.44,838.434 635.273,838.434 "/>
<polygon fill="#295CA8" stroke="#295CA8" stroke-width="3.000000e-004" stroke-linejoin="bevel" stroke-miterlimit="2.6131" points="
	641.593,838.338 641.44,838.434 641.44,838.434 635.121,838.338 "/>
<polygon fill="#295CA8" stroke="#295CA8" stroke-width="3.000000e-004" stroke-linejoin="bevel" stroke-miterlimit="2.6131" points="
	634.977,838.227 641.593,838.338 641.593,838.338 635.121,838.338 "/>
<polygon fill="#295CA8" stroke="#295CA8" stroke-width="3.000000e-004" stroke-linejoin="bevel" stroke-miterlimit="2.6131" points="
	641.737,838.227 641.593,838.338 641.593,838.338 634.977,838.227 "/>
<polygon fill="#295CA8" stroke="#295CA8" stroke-width="3.000000e-004" stroke-linejoin="bevel" stroke-miterlimit="2.6131" points="
	634.844,838.108 641.737,838.227 641.737,838.227 634.977,838.227 "/>
<polygon fill="#295CA8" stroke="#295CA8" stroke-width="3.000000e-004" stroke-linejoin="bevel" stroke-miterlimit="2.6131" points="
	641.87,838.108 641.737,838.227 641.737,838.227 634.844,838.108 "/>
<polygon fill="#295CA8" stroke="#295CA8" stroke-width="3.000000e-004" stroke-linejoin="bevel" stroke-miterlimit="2.6131" points="
	634.721,837.977 641.87,838.108 641.87,838.108 634.844,838.108 "/>
<polygon fill="#295CA8" stroke="#295CA8" stroke-width="3.000000e-004" stroke-linejoin="bevel" stroke-miterlimit="2.6131" points="
	641.993,837.977 641.87,838.108 641.87,838.108 634.721,837.977 "/>
<polygon fill="#295CA8" stroke="#295CA8" stroke-width="3.000000e-004" stroke-linejoin="bevel" stroke-miterlimit="2.6131" points="
	634.615,837.828 641.993,837.977 641.993,837.977 634.721,837.977 "/>
<polygon fill="#295CA8" stroke="#295CA8" stroke-width="3.000000e-004" stroke-linejoin="bevel" stroke-miterlimit="2.6131" points="
	642.1,837.828 641.993,837.977 641.993,837.977 634.615,837.828 "/>
<polygon fill="#295CA8" stroke="#295CA8" stroke-width="3.000000e-004" stroke-linejoin="bevel" stroke-miterlimit="2.6131" points="
	634.52,837.672 642.1,837.828 642.1,837.828 634.615,837.828 "/>
<polygon fill="#295CA8" stroke="#295CA8" stroke-width="3.000000e-004" stroke-linejoin="bevel" stroke-miterlimit="2.6131" points="
	642.194,837.672 642.1,837.828 642.1,837.828 634.52,837.672 "/>
<polygon fill="#295CA8" stroke="#295CA8" stroke-width="3.000000e-004" stroke-linejoin="bevel" stroke-miterlimit="2.6131" points="
	634.44,837.511 642.194,837.672 642.194,837.672 634.52,837.672 "/>
<polygon fill="#295CA8" stroke="#295CA8" stroke-width="3.000000e-004" stroke-linejoin="bevel" stroke-miterlimit="2.6131" points="
	642.273,837.511 642.194,837.672 642.194,837.672 634.44,837.511 "/>
<polygon fill="#295CA8" stroke="#295CA8" stroke-width="3.000000e-004" stroke-linejoin="bevel" stroke-miterlimit="2.6131" points="
	634.376,837.337 642.273,837.511 642.273,837.511 634.44,837.511 "/>
<polygon fill="#295CA8" stroke="#295CA8" stroke-width="3.000000e-004" stroke-linejoin="bevel" stroke-miterlimit="2.6131" points="
	642.339,837.337 642.273,837.511 642.273,837.511 634.376,837.337 "/>
<polygon fill="#295CA8" stroke="#295CA8" stroke-width="3.000000e-004" stroke-linejoin="bevel" stroke-miterlimit="2.6131" points="
	634.332,837.156 642.339,837.337 642.339,837.337 634.376,837.337 "/>
<polygon fill="#295CA8" stroke="#295CA8" stroke-width="3.000000e-004" stroke-linejoin="bevel" stroke-miterlimit="2.6131" points="
	642.382,837.156 642.339,837.337 642.339,837.337 634.332,837.156 "/>
<polygon fill="#295CA8" stroke="#295CA8" stroke-width="3.000000e-004" stroke-linejoin="bevel" stroke-miterlimit="2.6131" points="
	642.412,836.972 642.382,837.156 642.382,837.156 634.332,837.156 "/>
<polygon fill="#295CA8" stroke="#295CA8" stroke-width="3.000000e-004" stroke-linejoin="bevel" stroke-miterlimit="2.6131" points="
	634.302,836.972 642.412,836.972 642.412,836.972 634.332,837.156 "/>
<polygon fill="#295CA8" stroke="#295CA8" stroke-width="3.000000e-004" stroke-linejoin="bevel" stroke-miterlimit="2.6131" points="
	634.291,836.778 642.412,836.972 642.412,836.972 634.302,836.972 "/>
<polygon fill="#295CA8" stroke="#295CA8" stroke-width="3.000000e-004" stroke-linejoin="bevel" stroke-miterlimit="2.6131" points="
	642.423,836.778 642.412,836.972 642.412,836.972 634.291,836.778 "/>
<polygon fill="#295CA8" stroke="#295CA8" stroke-width="3.000000e-004" stroke-linejoin="bevel" stroke-miterlimit="2.6131" points="
	634.291,835.089 642.423,836.778 642.423,836.778 634.291,836.778 "/>
<polygon fill="#295CA8" stroke="#295CA8" stroke-width="3.000000e-004" stroke-linejoin="bevel" stroke-miterlimit="2.6131" points="
	642.423,834.978 642.423,836.778 642.423,836.778 634.291,835.089 "/>
<polygon fill="#295CA8" stroke="#295CA8" stroke-width="3.000000e-004" stroke-linejoin="bevel" stroke-miterlimit="2.6131" points="
	634.286,834.854 642.423,834.978 642.423,834.978 634.291,835.089 "/>
<polygon fill="#295CA8" stroke="#295CA8" stroke-width="3.000000e-004" stroke-linejoin="bevel" stroke-miterlimit="2.6131" points="
	642.461,834.675 642.423,834.978 642.423,834.978 634.286,834.854 "/>
<polygon fill="#295CA8" stroke="#295CA8" stroke-width="3.000000e-004" stroke-linejoin="bevel" stroke-miterlimit="2.6131" points="
	634.207,834.497 642.461,834.675 642.461,834.675 634.286,834.854 "/>
<polygon fill="#295CA8" stroke="#295CA8" stroke-width="3.000000e-004" stroke-linejoin="bevel" stroke-miterlimit="2.6131" points="
	642.572,834.323 642.461,834.675 642.461,834.675 634.207,834.497 "/>
<polygon fill="#295CA8" stroke="#295CA8" stroke-width="3.000000e-004" stroke-linejoin="bevel" stroke-miterlimit="2.6131" points="
	634.058,834.157 642.572,834.323 642.572,834.323 634.207,834.497 "/>
<polygon fill="#295CA8" stroke="#295CA8" stroke-width="3.000000e-004" stroke-linejoin="bevel" stroke-miterlimit="2.6131" points="
	642.752,834.006 642.572,834.323 642.572,834.323 634.058,834.157 "/>
<polygon fill="#295CA8" stroke="#295CA8" stroke-width="3.000000e-004" stroke-linejoin="bevel" stroke-miterlimit="2.6131" points="
	633.845,833.86 642.752,834.006 642.752,834.006 634.058,834.157 "/>
<polygon fill="#295CA8" stroke="#295CA8" stroke-width="3.000000e-004" stroke-linejoin="bevel" stroke-miterlimit="2.6131" points="
	642.935,833.799 642.752,834.006 642.752,834.006 633.845,833.86 "/>
<polygon fill="#295CA8" stroke="#295CA8" stroke-width="3.000000e-004" stroke-linejoin="bevel" stroke-miterlimit="2.6131" points="
	645.395,831.426 642.935,833.799 642.935,833.799 633.845,833.86 "/>
<polygon fill="#295CA8" stroke="#295CA8" stroke-width="3.000000e-004" stroke-linejoin="bevel" stroke-miterlimit="2.6131" points="
	631.325,831.426 645.395,831.426 645.395,831.426 633.845,833.86 "/>
<polygon fill="#295CA8" stroke="#295CA8" stroke-width="3.000000e-004" stroke-linejoin="bevel" stroke-miterlimit="2.6131" points="
	647.894,829.188 645.395,831.426 645.395,831.426 631.325,831.426 "/>
<polygon fill="#295CA8" stroke="#295CA8" stroke-width="3.000000e-004" stroke-linejoin="bevel" stroke-miterlimit="2.6131" points="
	628.821,829.188 647.894,829.188 647.894,829.188 631.325,831.426 "/>
<polygon fill="#295CA8" stroke="#295CA8" stroke-width="3.000000e-004" stroke-linejoin="bevel" stroke-miterlimit="2.6131" points="
	638.357,828.072 647.894,829.188 647.894,829.188 628.821,829.188 "/>
<polygon fill="#295CA8" stroke="#295CA8" stroke-width="3.000000e-004" stroke-linejoin="bevel" stroke-miterlimit="2.6131" points="
	626.244,827.05 638.357,828.072 638.357,828.072 628.821,829.188 "/>
<polygon fill="#295CA8" stroke="#295CA8" stroke-width="3.000000e-004" stroke-linejoin="bevel" stroke-miterlimit="2.6131" points="
	650.471,827.05 647.894,829.188 647.894,829.188 638.357,828.072 "/>
<polygon fill="#295CA8" stroke="#295CA8" stroke-width="3.000000e-004" stroke-linejoin="bevel" stroke-miterlimit="2.6131" points="
	653.118,825.012 650.471,827.05 650.471,827.05 638.357,828.072 "/>
<polygon fill="#295CA8" stroke="#295CA8" stroke-width="3.000000e-004" stroke-linejoin="bevel" stroke-miterlimit="2.6131" points="
	623.596,825.012 638.357,828.072 638.357,828.072 626.244,827.05 "/>
<polygon fill="#295CA8" stroke="#295CA8" stroke-width="3.000000e-004" stroke-linejoin="bevel" stroke-miterlimit="2.6131" points="
	632.797,823.381 638.357,828.072 638.357,828.072 623.596,825.012 "/>
<polygon fill="#295CA8" stroke="#295CA8" stroke-width="3.000000e-004" stroke-linejoin="bevel" stroke-miterlimit="2.6131" points="
	643.917,823.381 653.118,825.012 653.118,825.012 638.357,828.072 "/>
<polygon fill="#295CA8" stroke="#295CA8" stroke-width="3.000000e-004" stroke-linejoin="bevel" stroke-miterlimit="2.6131" points="
	655.834,823.07 653.118,825.012 653.118,825.012 643.917,823.381 "/>
<polygon fill="#295CA8" stroke="#295CA8" stroke-width="3.000000e-004" stroke-linejoin="bevel" stroke-miterlimit="2.6131" points="
	620.88,823.07 632.797,823.381 632.797,823.381 623.596,825.012 "/>
<polygon fill="#295CA8" stroke="#295CA8" stroke-width="3.000000e-004" stroke-linejoin="bevel" stroke-miterlimit="2.6131" points="
	618.096,821.235 632.797,823.381 632.797,823.381 620.88,823.07 "/>
<polygon fill="#295CA8" stroke="#295CA8" stroke-width="3.000000e-004" stroke-linejoin="bevel" stroke-miterlimit="2.6131" points="
	658.618,821.235 655.834,823.07 655.834,823.07 643.917,823.381 "/>
<polygon fill="#295CA8" stroke="#295CA8" stroke-width="3.000000e-004" stroke-linejoin="bevel" stroke-miterlimit="2.6131" points="
	661.468,819.506 658.618,821.235 658.618,821.235 643.917,823.381 "/>
<polygon fill="#295CA8" stroke="#295CA8" stroke-width="3.000000e-004" stroke-linejoin="bevel" stroke-miterlimit="2.6131" points="
	615.246,819.506 632.797,823.381 632.797,823.381 618.096,821.235 "/>
<polygon fill="#295CA8" stroke="#295CA8" stroke-width="3.000000e-004" stroke-linejoin="bevel" stroke-miterlimit="2.6131" points="
	626.957,819.089 632.797,823.381 632.797,823.381 615.246,819.506 "/>
<polygon fill="#295CA8" stroke="#295CA8" stroke-width="3.000000e-004" stroke-linejoin="bevel" stroke-miterlimit="2.6131" points="
	649.758,819.089 661.468,819.506 661.468,819.506 643.917,823.381 "/>
<polygon fill="#295CA8" stroke="#295CA8" stroke-width="3.000000e-004" stroke-linejoin="bevel" stroke-miterlimit="2.6131" points="
	664.377,817.884 661.468,819.506 661.468,819.506 649.758,819.089 "/>
<polygon fill="#295CA8" stroke="#295CA8" stroke-width="3.000000e-004" stroke-linejoin="bevel" stroke-miterlimit="2.6131" points="
	612.337,817.884 626.957,819.089 626.957,819.089 615.246,819.506 "/>
<polygon fill="#295CA8" stroke="#295CA8" stroke-width="3.000000e-004" stroke-linejoin="bevel" stroke-miterlimit="2.6131" points="
	667.346,816.361 664.377,817.884 664.377,817.884 649.758,819.089 "/>
<polygon fill="#295CA8" stroke="#295CA8" stroke-width="3.000000e-004" stroke-linejoin="bevel" stroke-miterlimit="2.6131" points="
	609.373,816.361 626.957,819.089 626.957,819.089 612.337,817.884 "/>
<polygon fill="#295CA8" stroke="#295CA8" stroke-width="3.000000e-004" stroke-linejoin="bevel" stroke-miterlimit="2.6131" points="
	655.856,815.194 667.346,816.361 667.346,816.361 649.758,819.089 "/>
<polygon fill="#295CA8" stroke="#295CA8" stroke-width="3.000000e-004" stroke-linejoin="bevel" stroke-miterlimit="2.6131" points="
	620.858,815.194 626.957,819.089 626.957,819.089 609.373,816.361 "/>
<polygon fill="#295CA8" stroke="#295CA8" stroke-width="3.000000e-004" stroke-linejoin="bevel" stroke-miterlimit="2.6131" points="
	670.361,814.954 667.346,816.361 667.346,816.361 655.856,815.194 "/>
<polygon fill="#295CA8" stroke="#295CA8" stroke-width="3.000000e-004" stroke-linejoin="bevel" stroke-miterlimit="2.6131" points="
	606.347,814.954 620.858,815.194 620.858,815.194 609.373,816.361 "/>
<polygon fill="#295CA8" stroke="#295CA8" stroke-width="3.000000e-004" stroke-linejoin="bevel" stroke-miterlimit="2.6131" points="
	603.274,813.659 620.858,815.194 620.858,815.194 606.347,814.954 "/>
<polygon fill="#295CA8" stroke="#295CA8" stroke-width="3.000000e-004" stroke-linejoin="bevel" stroke-miterlimit="2.6131" points="
	673.439,813.659 670.361,814.954 670.361,814.954 655.856,815.194 "/>
<polygon fill="#295CA8" stroke="#295CA8" stroke-width="3.000000e-004" stroke-linejoin="bevel" stroke-miterlimit="2.6131" points="
	676.559,812.479 673.439,813.659 673.439,813.659 655.856,815.194 "/>
<polygon fill="#295CA8" stroke="#295CA8" stroke-width="3.000000e-004" stroke-linejoin="bevel" stroke-miterlimit="2.6131" points="
	600.156,812.479 620.858,815.194 620.858,815.194 603.274,813.659 "/>
<polygon fill="#295CA8" stroke="#295CA8" stroke-width="3.000000e-004" stroke-linejoin="bevel" stroke-miterlimit="2.6131" points="
	662.191,811.72 676.559,812.479 676.559,812.479 655.856,815.194 "/>
<polygon fill="#295CA8" stroke="#295CA8" stroke-width="3.000000e-004" stroke-linejoin="bevel" stroke-miterlimit="2.6131" points="
	614.521,811.72 620.858,815.194 620.858,815.194 600.156,812.479 "/>
<polygon fill="#295CA8" stroke="#295CA8" stroke-width="3.000000e-004" stroke-linejoin="bevel" stroke-miterlimit="2.6131" points="
	679.727,811.405 676.559,812.479 676.559,812.479 662.191,811.72 "/>
<polygon fill="#295CA8" stroke="#295CA8" stroke-width="3.000000e-004" stroke-linejoin="bevel" stroke-miterlimit="2.6131" points="
	596.988,811.405 614.521,811.72 614.521,811.72 600.156,812.479 "/>
<polygon fill="#295CA8" stroke="#295CA8" stroke-width="3.000000e-004" stroke-linejoin="bevel" stroke-miterlimit="2.6131" points="
	593.776,810.45 614.521,811.72 614.521,811.72 596.988,811.405 "/>
<polygon fill="#295CA8" stroke="#295CA8" stroke-width="3.000000e-004" stroke-linejoin="bevel" stroke-miterlimit="2.6131" points="
	682.938,810.45 679.727,811.405 679.727,811.405 662.191,811.72 "/>
<polygon fill="#295CA8" stroke="#295CA8" stroke-width="3.000000e-004" stroke-linejoin="bevel" stroke-miterlimit="2.6131" points="
	590.53,809.612 614.521,811.72 614.521,811.72 593.776,810.45 "/>
<polygon fill="#295CA8" stroke="#295CA8" stroke-width="3.000000e-004" stroke-linejoin="bevel" stroke-miterlimit="2.6131" points="
	686.185,809.612 682.938,810.45 682.938,810.45 662.191,811.72 "/>
<polygon fill="#295CA8" stroke="#295CA8" stroke-width="3.000000e-004" stroke-linejoin="bevel" stroke-miterlimit="2.6131" points="
	587.245,808.897 614.521,811.72 614.521,811.72 590.53,809.612 "/>
<polygon fill="#295CA8" stroke="#295CA8" stroke-width="3.000000e-004" stroke-linejoin="bevel" stroke-miterlimit="2.6131" points="
	689.469,808.897 686.185,809.612 686.185,809.612 662.191,811.72 "/>
<polygon fill="#295CA8" stroke="#295CA8" stroke-width="3.000000e-004" stroke-linejoin="bevel" stroke-miterlimit="2.6131" points="
	668.739,808.662 689.469,808.897 689.469,808.897 662.191,811.72 "/>
<polygon fill="#295CA8" stroke="#295CA8" stroke-width="3.000000e-004" stroke-linejoin="bevel" stroke-miterlimit="2.6131" points="
	607.975,808.662 614.521,811.72 614.521,811.72 587.245,808.897 "/>
<polygon fill="#295CA8" stroke="#295CA8" stroke-width="3.000000e-004" stroke-linejoin="bevel" stroke-miterlimit="2.6131" points="
	675.486,806.045 689.469,808.897 689.469,808.897 668.739,808.662 "/>
<polygon fill="#295CA8" stroke="#295CA8" stroke-width="3.000000e-004" stroke-linejoin="bevel" stroke-miterlimit="2.6131" points="
	601.229,806.045 607.975,808.662 607.975,808.662 587.245,808.897 "/>
<polygon fill="#295CA8" stroke="#295CA8" stroke-width="3.000000e-004" stroke-linejoin="bevel" stroke-miterlimit="2.6131" points="
	682.401,803.87 689.469,808.897 689.469,808.897 675.486,806.045 "/>
<polygon fill="#295CA8" stroke="#295CA8" stroke-width="3.000000e-004" stroke-linejoin="bevel" stroke-miterlimit="2.6131" points="
	594.308,803.87 601.229,806.045 601.229,806.045 587.245,808.897 "/>
<polygon fill="#295CA8" stroke="#295CA8" stroke-width="3.000000e-004" stroke-linejoin="bevel" stroke-miterlimit="2.6131" points="
	587.245,802.161 594.308,803.87 594.308,803.87 587.245,808.897 "/>
<polygon fill="#295CA8" stroke="#295CA8" stroke-width="3.000000e-004" stroke-linejoin="bevel" stroke-miterlimit="2.6131" points="
	689.469,802.161 689.469,808.897 689.469,808.897 682.401,803.87 "/>
<polyline fill="#0092CD" stroke="#393E41" stroke-width="3.000000e-004" stroke-linejoin="bevel" stroke-miterlimit="2.6131" points="
	689.469,820.437 682.401,822.15 675.486,824.324 668.739,826.94 662.191,829.99 655.856,833.473 649.758,837.363 643.917,841.657 
	638.357,846.351 632.797,841.657 626.957,837.363 620.858,833.473 614.521,829.99 607.975,826.94 601.229,824.324 594.308,822.15 
	587.245,820.437 587.245,827.175 590.53,827.894 593.776,828.729 596.988,829.684 600.156,830.754 603.274,831.938 606.347,833.234 
	609.373,834.643 612.337,836.157 615.246,837.782 618.096,839.514 620.88,841.351 623.596,843.288 626.244,845.326 628.821,847.466 
	631.325,849.705 633.744,852.04 633.807,852.106 633.866,852.177 633.924,852.247 633.979,852.323 634.03,852.399 634.073,852.481 
	634.109,852.563 634.152,852.646 634.186,852.734 634.212,852.821 634.236,852.908 634.259,852.995 634.275,853.089 
	634.286,853.184 634.291,853.271 634.291,853.365 634.291,855.054 634.297,855.153 634.302,855.246 634.318,855.342 
	634.332,855.438 634.349,855.526 634.376,855.613 634.408,855.7 634.44,855.787 634.477,855.872 634.52,855.951 634.561,856.027 
	634.615,856.106 634.664,856.181 634.721,856.251 634.781,856.318 634.844,856.385 634.906,856.446 634.977,856.504 
	635.045,856.564 635.121,856.612 635.194,856.658 635.273,856.707 635.358,856.748 635.439,856.786 635.524,856.819 635.608,856.85 
	635.704,856.873 635.791,856.896 635.886,856.911 635.976,856.926 636.076,856.935 636.166,856.937 638.357,856.937 
	640.542,856.937 640.638,856.935 640.738,856.926 640.828,856.911 640.924,856.896 641.016,856.873 641.105,856.85 641.19,856.819 
	641.274,856.786 641.361,856.748 641.44,856.707 641.52,856.658 641.593,856.612 641.664,856.562 641.737,856.504 641.808,856.446 
	641.87,856.385 641.934,856.318 641.993,856.251 642.045,856.181 642.1,856.106 642.153,856.027 642.194,855.951 642.238,855.872 
	642.273,855.787 642.306,855.7 642.339,855.613 642.36,855.526 642.382,855.438 642.401,855.342 642.412,855.246 642.418,855.153 
	642.423,855.054 642.423,853.365 642.423,853.271 642.429,853.184 642.439,853.089 642.456,852.995 642.479,852.908 
	642.502,852.821 642.529,852.734 642.563,852.646 642.6,852.563 642.641,852.481 642.689,852.399 642.736,852.323 642.79,852.247 
	642.842,852.177 642.907,852.106 642.97,852.04 645.395,849.705 647.894,847.466 650.471,845.326 653.118,843.288 655.834,841.351 
	658.618,839.514 661.468,837.782 664.377,836.157 667.346,834.643 670.361,833.234 673.439,831.938 676.559,830.754 
	679.727,829.684 682.938,828.729 686.185,827.894 689.469,827.175 689.469,820.437 "/>
<polygon fill="#231F20" stroke="#231F20" stroke-width="3.000000e-004" stroke-linejoin="bevel" stroke-miterlimit="2.6131" points="
	635.976,856.926 640.542,856.937 640.542,856.937 638.357,856.937 "/>
<polygon fill="#231F20" stroke="#231F20" stroke-width="3.000000e-004" stroke-linejoin="bevel" stroke-miterlimit="2.6131" points="
	635.976,856.926 638.357,856.937 638.357,856.937 636.166,856.937 "/>
<polygon fill="#231F20" stroke="#231F20" stroke-width="3.000000e-004" stroke-linejoin="bevel" stroke-miterlimit="2.6131" points="
	640.738,856.926 640.542,856.937 640.542,856.937 635.976,856.926 "/>
<polygon fill="#231F20" stroke="#231F20" stroke-width="3.000000e-004" stroke-linejoin="bevel" stroke-miterlimit="2.6131" points="
	635.791,856.896 640.738,856.926 640.738,856.926 635.976,856.926 "/>
<polygon fill="#231F20" stroke="#231F20" stroke-width="3.000000e-004" stroke-linejoin="bevel" stroke-miterlimit="2.6131" points="
	640.924,856.896 640.738,856.926 640.738,856.926 635.791,856.896 "/>
<polygon fill="#231F20" stroke="#231F20" stroke-width="3.000000e-004" stroke-linejoin="bevel" stroke-miterlimit="2.6131" points="
	635.608,856.85 640.924,856.896 640.924,856.896 635.791,856.896 "/>
<polygon fill="#231F20" stroke="#231F20" stroke-width="3.000000e-004" stroke-linejoin="bevel" stroke-miterlimit="2.6131" points="
	641.105,856.85 640.924,856.896 640.924,856.896 635.608,856.85 "/>
<polygon fill="#231F20" stroke="#231F20" stroke-width="3.000000e-004" stroke-linejoin="bevel" stroke-miterlimit="2.6131" points="
	635.439,856.786 641.105,856.85 641.105,856.85 635.608,856.85 "/>
<polygon fill="#231F20" stroke="#231F20" stroke-width="3.000000e-004" stroke-linejoin="bevel" stroke-miterlimit="2.6131" points="
	641.274,856.786 641.105,856.85 641.105,856.85 635.439,856.786 "/>
<polygon fill="#231F20" stroke="#231F20" stroke-width="3.000000e-004" stroke-linejoin="bevel" stroke-miterlimit="2.6131" points="
	641.44,856.707 641.274,856.786 641.274,856.786 635.439,856.786 "/>
<polygon fill="#231F20" stroke="#231F20" stroke-width="3.000000e-004" stroke-linejoin="bevel" stroke-miterlimit="2.6131" points="
	635.273,856.707 641.44,856.707 641.44,856.707 635.439,856.786 "/>
<polygon fill="#231F20" stroke="#231F20" stroke-width="3.000000e-004" stroke-linejoin="bevel" stroke-miterlimit="2.6131" points="
	641.593,856.612 641.44,856.707 641.44,856.707 635.273,856.707 "/>
<polygon fill="#231F20" stroke="#231F20" stroke-width="3.000000e-004" stroke-linejoin="bevel" stroke-miterlimit="2.6131" points="
	635.121,856.612 641.593,856.612 641.593,856.612 635.273,856.707 "/>
<polygon fill="#231F20" stroke="#231F20" stroke-width="3.000000e-004" stroke-linejoin="bevel" stroke-miterlimit="2.6131" points="
	634.977,856.504 641.593,856.612 641.593,856.612 635.121,856.612 "/>
<polygon fill="#231F20" stroke="#231F20" stroke-width="3.000000e-004" stroke-linejoin="bevel" stroke-miterlimit="2.6131" points="
	641.737,856.504 641.593,856.612 641.593,856.612 634.977,856.504 "/>
<polygon fill="#231F20" stroke="#231F20" stroke-width="3.000000e-004" stroke-linejoin="bevel" stroke-miterlimit="2.6131" points="
	634.844,856.385 641.737,856.504 641.737,856.504 634.977,856.504 "/>
<polygon fill="#231F20" stroke="#231F20" stroke-width="3.000000e-004" stroke-linejoin="bevel" stroke-miterlimit="2.6131" points="
	641.87,856.385 641.737,856.504 641.737,856.504 634.844,856.385 "/>
<polygon fill="#231F20" stroke="#231F20" stroke-width="3.000000e-004" stroke-linejoin="bevel" stroke-miterlimit="2.6131" points="
	641.993,856.251 641.87,856.385 641.87,856.385 634.844,856.385 "/>
<polygon fill="#231F20" stroke="#231F20" stroke-width="3.000000e-004" stroke-linejoin="bevel" stroke-miterlimit="2.6131" points="
	634.721,856.251 641.993,856.251 641.993,856.251 634.844,856.385 "/>
<polygon fill="#231F20" stroke="#231F20" stroke-width="3.000000e-004" stroke-linejoin="bevel" stroke-miterlimit="2.6131" points="
	634.615,856.106 641.993,856.251 641.993,856.251 634.721,856.251 "/>
<polygon fill="#231F20" stroke="#231F20" stroke-width="3.000000e-004" stroke-linejoin="bevel" stroke-miterlimit="2.6131" points="
	642.1,856.106 641.993,856.251 641.993,856.251 634.615,856.106 "/>
<polygon fill="#231F20" stroke="#231F20" stroke-width="3.000000e-004" stroke-linejoin="bevel" stroke-miterlimit="2.6131" points="
	642.194,855.951 642.1,856.106 642.1,856.106 634.615,856.106 "/>
<polygon fill="#231F20" stroke="#231F20" stroke-width="3.000000e-004" stroke-linejoin="bevel" stroke-miterlimit="2.6131" points="
	634.52,855.951 642.194,855.951 642.194,855.951 634.615,856.106 "/>
<polygon fill="#231F20" stroke="#231F20" stroke-width="3.000000e-004" stroke-linejoin="bevel" stroke-miterlimit="2.6131" points="
	634.44,855.787 642.194,855.951 642.194,855.951 634.52,855.951 "/>
<polygon fill="#231F20" stroke="#231F20" stroke-width="3.000000e-004" stroke-linejoin="bevel" stroke-miterlimit="2.6131" points="
	642.273,855.787 642.194,855.951 642.194,855.951 634.44,855.787 "/>
<polygon fill="#231F20" stroke="#231F20" stroke-width="3.000000e-004" stroke-linejoin="bevel" stroke-miterlimit="2.6131" points="
	634.376,855.613 642.273,855.787 642.273,855.787 634.44,855.787 "/>
<polygon fill="#231F20" stroke="#231F20" stroke-width="3.000000e-004" stroke-linejoin="bevel" stroke-miterlimit="2.6131" points="
	642.339,855.613 642.273,855.787 642.273,855.787 634.376,855.613 "/>
<polygon fill="#231F20" stroke="#231F20" stroke-width="3.000000e-004" stroke-linejoin="bevel" stroke-miterlimit="2.6131" points="
	642.382,855.438 642.339,855.613 642.339,855.613 634.376,855.613 "/>
<polygon fill="#231F20" stroke="#231F20" stroke-width="3.000000e-004" stroke-linejoin="bevel" stroke-miterlimit="2.6131" points="
	634.332,855.438 642.382,855.438 642.382,855.438 634.376,855.613 "/>
<polygon fill="#231F20" stroke="#231F20" stroke-width="3.000000e-004" stroke-linejoin="bevel" stroke-miterlimit="2.6131" points="
	642.412,855.246 642.382,855.438 642.382,855.438 634.332,855.438 "/>
<polygon fill="#231F20" stroke="#231F20" stroke-width="3.000000e-004" stroke-linejoin="bevel" stroke-miterlimit="2.6131" points="
	634.302,855.246 642.412,855.246 642.412,855.246 634.332,855.438 "/>
<polygon fill="#231F20" stroke="#231F20" stroke-width="3.000000e-004" stroke-linejoin="bevel" stroke-miterlimit="2.6131" points="
	634.291,855.054 642.412,855.246 642.412,855.246 634.302,855.246 "/>
<polygon fill="#231F20" stroke="#231F20" stroke-width="3.000000e-004" stroke-linejoin="bevel" stroke-miterlimit="2.6131" points="
	642.423,855.054 642.412,855.246 642.412,855.246 634.291,855.054 "/>
<polygon fill="#231F20" stroke="#231F20" stroke-width="3.000000e-004" stroke-linejoin="bevel" stroke-miterlimit="2.6131" points="
	634.291,853.365 642.423,855.054 642.423,855.054 634.291,855.054 "/>
<polygon fill="#231F20" stroke="#231F20" stroke-width="3.000000e-004" stroke-linejoin="bevel" stroke-miterlimit="2.6131" points="
	642.423,853.255 642.423,855.054 642.423,855.054 634.291,853.365 "/>
<polygon fill="#231F20" stroke="#231F20" stroke-width="3.000000e-004" stroke-linejoin="bevel" stroke-miterlimit="2.6131" points="
	634.286,853.135 642.423,853.255 642.423,853.255 634.291,853.365 "/>
<polygon fill="#231F20" stroke="#231F20" stroke-width="3.000000e-004" stroke-linejoin="bevel" stroke-miterlimit="2.6131" points="
	642.461,852.952 642.423,853.255 642.423,853.255 634.286,853.135 "/>
<polygon fill="#231F20" stroke="#231F20" stroke-width="3.000000e-004" stroke-linejoin="bevel" stroke-miterlimit="2.6131" points="
	634.207,852.773 642.461,852.952 642.461,852.952 634.286,853.135 "/>
<polygon fill="#231F20" stroke="#231F20" stroke-width="3.000000e-004" stroke-linejoin="bevel" stroke-miterlimit="2.6131" points="
	642.572,852.604 642.461,852.952 642.461,852.952 634.207,852.773 "/>
<polygon fill="#231F20" stroke="#231F20" stroke-width="3.000000e-004" stroke-linejoin="bevel" stroke-miterlimit="2.6131" points="
	634.058,852.438 642.572,852.604 642.572,852.604 634.207,852.773 "/>
<polygon fill="#231F20" stroke="#231F20" stroke-width="3.000000e-004" stroke-linejoin="bevel" stroke-miterlimit="2.6131" points="
	642.752,852.282 642.572,852.604 642.572,852.604 634.058,852.438 "/>
<polygon fill="#231F20" stroke="#231F20" stroke-width="3.000000e-004" stroke-linejoin="bevel" stroke-miterlimit="2.6131" points="
	633.845,852.139 642.752,852.282 642.752,852.282 634.058,852.438 "/>
<polygon fill="#231F20" stroke="#231F20" stroke-width="3.000000e-004" stroke-linejoin="bevel" stroke-miterlimit="2.6131" points="
	642.935,852.072 642.752,852.282 642.752,852.282 633.845,852.139 "/>
<polygon fill="#231F20" stroke="#231F20" stroke-width="3.000000e-004" stroke-linejoin="bevel" stroke-miterlimit="2.6131" points="
	645.395,849.705 642.935,852.072 642.935,852.072 633.845,852.139 "/>
<polygon fill="#231F20" stroke="#231F20" stroke-width="3.000000e-004" stroke-linejoin="bevel" stroke-miterlimit="2.6131" points="
	631.325,849.705 645.395,849.705 645.395,849.705 633.845,852.139 "/>
<polygon fill="#231F20" stroke="#231F20" stroke-width="3.000000e-004" stroke-linejoin="bevel" stroke-miterlimit="2.6131" points="
	628.821,847.466 645.395,849.705 645.395,849.705 631.325,849.705 "/>
<polygon fill="#231F20" stroke="#231F20" stroke-width="3.000000e-004" stroke-linejoin="bevel" stroke-miterlimit="2.6131" points="
	647.894,847.466 645.395,849.705 645.395,849.705 628.821,847.466 "/>
<polygon fill="#231F20" stroke="#231F20" stroke-width="3.000000e-004" stroke-linejoin="bevel" stroke-miterlimit="2.6131" points="
	638.357,846.351 647.894,847.466 647.894,847.466 628.821,847.466 "/>
<polygon fill="#231F20" stroke="#231F20" stroke-width="3.000000e-004" stroke-linejoin="bevel" stroke-miterlimit="2.6131" points="
	626.244,845.326 638.357,846.351 638.357,846.351 628.821,847.466 "/>
<polygon fill="#231F20" stroke="#231F20" stroke-width="3.000000e-004" stroke-linejoin="bevel" stroke-miterlimit="2.6131" points="
	650.471,845.326 647.894,847.466 647.894,847.466 638.357,846.351 "/>
<polygon fill="#231F20" stroke="#231F20" stroke-width="3.000000e-004" stroke-linejoin="bevel" stroke-miterlimit="2.6131" points="
	653.118,843.288 650.471,845.326 650.471,845.326 638.357,846.351 "/>
<polygon fill="#231F20" stroke="#231F20" stroke-width="3.000000e-004" stroke-linejoin="bevel" stroke-miterlimit="2.6131" points="
	623.596,843.288 638.357,846.351 638.357,846.351 626.244,845.326 "/>
<polygon fill="#231F20" stroke="#231F20" stroke-width="3.000000e-004" stroke-linejoin="bevel" stroke-miterlimit="2.6131" points="
	643.917,841.657 653.118,843.288 653.118,843.288 638.357,846.351 "/>
<polygon fill="#231F20" stroke="#231F20" stroke-width="3.000000e-004" stroke-linejoin="bevel" stroke-miterlimit="2.6131" points="
	632.797,841.657 638.357,846.351 638.357,846.351 623.596,843.288 "/>
<polygon fill="#231F20" stroke="#231F20" stroke-width="3.000000e-004" stroke-linejoin="bevel" stroke-miterlimit="2.6131" points="
	620.88,841.351 632.797,841.657 632.797,841.657 623.596,843.288 "/>
<polygon fill="#231F20" stroke="#231F20" stroke-width="3.000000e-004" stroke-linejoin="bevel" stroke-miterlimit="2.6131" points="
	655.834,841.351 653.118,843.288 653.118,843.288 643.917,841.657 "/>
<polygon fill="#231F20" stroke="#231F20" stroke-width="3.000000e-004" stroke-linejoin="bevel" stroke-miterlimit="2.6131" points="
	618.096,839.514 632.797,841.657 632.797,841.657 620.88,841.351 "/>
<polygon fill="#231F20" stroke="#231F20" stroke-width="3.000000e-004" stroke-linejoin="bevel" stroke-miterlimit="2.6131" points="
	658.618,839.514 655.834,841.351 655.834,841.351 643.917,841.657 "/>
<polygon fill="#231F20" stroke="#231F20" stroke-width="3.000000e-004" stroke-linejoin="bevel" stroke-miterlimit="2.6131" points="
	615.246,837.782 632.797,841.657 632.797,841.657 618.096,839.514 "/>
<polygon fill="#231F20" stroke="#231F20" stroke-width="3.000000e-004" stroke-linejoin="bevel" stroke-miterlimit="2.6131" points="
	661.468,837.782 658.618,839.514 658.618,839.514 643.917,841.657 "/>
<polygon fill="#231F20" stroke="#231F20" stroke-width="3.000000e-004" stroke-linejoin="bevel" stroke-miterlimit="2.6131" points="
	626.957,837.363 632.797,841.657 632.797,841.657 615.246,837.782 "/>
<polygon fill="#231F20" stroke="#231F20" stroke-width="3.000000e-004" stroke-linejoin="bevel" stroke-miterlimit="2.6131" points="
	649.758,837.363 661.468,837.782 661.468,837.782 643.917,841.657 "/>
<polygon fill="#231F20" stroke="#231F20" stroke-width="3.000000e-004" stroke-linejoin="bevel" stroke-miterlimit="2.6131" points="
	612.337,836.157 626.957,837.363 626.957,837.363 615.246,837.782 "/>
<polygon fill="#231F20" stroke="#231F20" stroke-width="3.000000e-004" stroke-linejoin="bevel" stroke-miterlimit="2.6131" points="
	664.377,836.157 661.468,837.782 661.468,837.782 649.758,837.363 "/>
<polygon fill="#231F20" stroke="#231F20" stroke-width="3.000000e-004" stroke-linejoin="bevel" stroke-miterlimit="2.6131" points="
	609.373,834.643 626.957,837.363 626.957,837.363 612.337,836.157 "/>
<polygon fill="#231F20" stroke="#231F20" stroke-width="3.000000e-004" stroke-linejoin="bevel" stroke-miterlimit="2.6131" points="
	667.346,834.643 664.377,836.157 664.377,836.157 649.758,837.363 "/>
<polygon fill="#231F20" stroke="#231F20" stroke-width="3.000000e-004" stroke-linejoin="bevel" stroke-miterlimit="2.6131" points="
	620.858,833.473 626.957,837.363 626.957,837.363 609.373,834.643 "/>
<polygon fill="#231F20" stroke="#231F20" stroke-width="3.000000e-004" stroke-linejoin="bevel" stroke-miterlimit="2.6131" points="
	655.856,833.473 667.346,834.643 667.346,834.643 649.758,837.363 "/>
<polygon fill="#231F20" stroke="#231F20" stroke-width="3.000000e-004" stroke-linejoin="bevel" stroke-miterlimit="2.6131" points="
	606.347,833.234 620.858,833.473 620.858,833.473 609.373,834.643 "/>
<polygon fill="#231F20" stroke="#231F20" stroke-width="3.000000e-004" stroke-linejoin="bevel" stroke-miterlimit="2.6131" points="
	670.361,833.234 667.346,834.643 667.346,834.643 655.856,833.473 "/>
<polygon fill="#231F20" stroke="#231F20" stroke-width="3.000000e-004" stroke-linejoin="bevel" stroke-miterlimit="2.6131" points="
	673.439,831.938 670.361,833.234 670.361,833.234 655.856,833.473 "/>
<polygon fill="#231F20" stroke="#231F20" stroke-width="3.000000e-004" stroke-linejoin="bevel" stroke-miterlimit="2.6131" points="
	603.274,831.938 620.858,833.473 620.858,833.473 606.347,833.234 "/>
<polygon fill="#231F20" stroke="#231F20" stroke-width="3.000000e-004" stroke-linejoin="bevel" stroke-miterlimit="2.6131" points="
	676.559,830.754 673.439,831.938 673.439,831.938 655.856,833.473 "/>
<polygon fill="#231F20" stroke="#231F20" stroke-width="3.000000e-004" stroke-linejoin="bevel" stroke-miterlimit="2.6131" points="
	600.156,830.754 620.858,833.473 620.858,833.473 603.274,831.938 "/>
<polygon fill="#231F20" stroke="#231F20" stroke-width="3.000000e-004" stroke-linejoin="bevel" stroke-miterlimit="2.6131" points="
	614.521,829.99 620.858,833.473 620.858,833.473 600.156,830.754 "/>
<polygon fill="#231F20" stroke="#231F20" stroke-width="3.000000e-004" stroke-linejoin="bevel" stroke-miterlimit="2.6131" points="
	662.191,829.99 676.559,830.754 676.559,830.754 655.856,833.473 "/>
<polygon fill="#231F20" stroke="#231F20" stroke-width="3.000000e-004" stroke-linejoin="bevel" stroke-miterlimit="2.6131" points="
	679.727,829.684 676.559,830.754 676.559,830.754 662.191,829.99 "/>
<polygon fill="#231F20" stroke="#231F20" stroke-width="3.000000e-004" stroke-linejoin="bevel" stroke-miterlimit="2.6131" points="
	596.988,829.684 614.521,829.99 614.521,829.99 600.156,830.754 "/>
<polygon fill="#231F20" stroke="#231F20" stroke-width="3.000000e-004" stroke-linejoin="bevel" stroke-miterlimit="2.6131" points="
	593.776,828.729 614.521,829.99 614.521,829.99 596.988,829.684 "/>
<polygon fill="#231F20" stroke="#231F20" stroke-width="3.000000e-004" stroke-linejoin="bevel" stroke-miterlimit="2.6131" points="
	682.938,828.729 679.727,829.684 679.727,829.684 662.191,829.99 "/>
<polygon fill="#231F20" stroke="#231F20" stroke-width="3.000000e-004" stroke-linejoin="bevel" stroke-miterlimit="2.6131" points="
	686.185,827.894 682.938,828.729 682.938,828.729 662.191,829.99 "/>
<polygon fill="#231F20" stroke="#231F20" stroke-width="3.000000e-004" stroke-linejoin="bevel" stroke-miterlimit="2.6131" points="
	590.53,827.894 614.521,829.99 614.521,829.99 593.776,828.729 "/>
<polygon fill="#231F20" stroke="#231F20" stroke-width="3.000000e-004" stroke-linejoin="bevel" stroke-miterlimit="2.6131" points="
	689.469,827.175 686.185,827.894 686.185,827.894 662.191,829.99 "/>
<polygon fill="#231F20" stroke="#231F20" stroke-width="3.000000e-004" stroke-linejoin="bevel" stroke-miterlimit="2.6131" points="
	587.245,827.175 614.521,829.99 614.521,829.99 590.53,827.894 "/>
<polygon fill="#231F20" stroke="#231F20" stroke-width="3.000000e-004" stroke-linejoin="bevel" stroke-miterlimit="2.6131" points="
	607.975,826.94 614.521,829.99 614.521,829.99 587.245,827.175 "/>
<polygon fill="#231F20" stroke="#231F20" stroke-width="3.000000e-004" stroke-linejoin="bevel" stroke-miterlimit="2.6131" points="
	668.739,826.94 689.469,827.175 689.469,827.175 662.191,829.99 "/>
<polygon fill="#231F20" stroke="#231F20" stroke-width="3.000000e-004" stroke-linejoin="bevel" stroke-miterlimit="2.6131" points="
	601.229,824.324 607.975,826.94 607.975,826.94 587.245,827.175 "/>
<polygon fill="#231F20" stroke="#231F20" stroke-width="3.000000e-004" stroke-linejoin="bevel" stroke-miterlimit="2.6131" points="
	675.486,824.324 689.469,827.175 689.469,827.175 668.739,826.94 "/>
<polygon fill="#231F20" stroke="#231F20" stroke-width="3.000000e-004" stroke-linejoin="bevel" stroke-miterlimit="2.6131" points="
	682.401,822.15 689.469,827.175 689.469,827.175 675.486,824.324 "/>
<polygon fill="#231F20" stroke="#231F20" stroke-width="3.000000e-004" stroke-linejoin="bevel" stroke-miterlimit="2.6131" points="
	594.308,822.15 601.229,824.324 601.229,824.324 587.245,827.175 "/>
<polygon fill="#231F20" stroke="#231F20" stroke-width="3.000000e-004" stroke-linejoin="bevel" stroke-miterlimit="2.6131" points="
	689.469,820.437 689.469,827.175 689.469,827.175 682.401,822.15 "/>
<polygon fill="#231F20" stroke="#231F20" stroke-width="3.000000e-004" stroke-linejoin="bevel" stroke-miterlimit="2.6131" points="
	587.245,820.437 594.308,822.15 594.308,822.15 587.245,827.175 "/>
<polyline fill="#BABCBE" stroke="#BABCBE" stroke-width="3.000000e-004" stroke-linejoin="bevel" stroke-miterlimit="2.6131" points="
	689.469,838.714 682.401,840.429 675.486,842.603 668.739,845.218 662.191,848.271 655.856,851.753 649.758,855.645 
	643.917,859.938 638.357,864.628 632.797,859.938 626.957,855.645 620.858,851.753 614.521,848.271 607.975,845.218 
	601.229,842.603 594.308,840.429 587.245,838.714 587.245,845.451 590.53,846.167 593.776,847.006 596.988,847.962 600.156,849.03 
	603.274,850.218 606.347,851.513 609.373,852.917 612.337,854.438 615.246,856.063 618.096,857.79 620.88,859.626 623.596,861.565 
	626.244,863.607 628.821,865.742 631.325,867.98 633.744,870.315 633.807,870.384 633.866,870.456 633.924,870.527 633.979,870.602 
	634.03,870.681 634.073,870.762 634.109,870.841 634.152,870.925 634.186,871.01 634.212,871.103 634.236,871.187 634.259,871.275 
	634.275,871.365 634.286,871.455 634.291,871.554 634.291,871.644 634.291,873.333 634.297,873.432 634.302,873.524 
	634.318,873.618 634.332,873.712 634.349,873.805 634.376,873.895 634.408,873.976 634.44,874.065 634.477,874.149 634.52,874.229 
	634.561,874.308 634.615,874.384 634.664,874.457 634.721,874.527 634.781,874.597 634.844,874.661 634.906,874.725 
	634.977,874.783 635.045,874.839 635.121,874.891 635.194,874.939 635.273,874.984 635.358,875.025 635.439,875.066 
	635.524,875.098 635.608,875.126 635.704,875.15 635.791,875.174 635.886,875.191 635.976,875.2 636.076,875.208 636.166,875.208 
	638.357,875.208 640.542,875.208 640.638,875.208 640.738,875.2 640.828,875.191 640.924,875.174 641.016,875.15 641.105,875.126 
	641.19,875.098 641.274,875.066 641.361,875.025 641.44,874.984 641.52,874.939 641.593,874.891 641.664,874.839 641.737,874.783 
	641.808,874.725 641.87,874.661 641.934,874.597 641.993,874.527 642.045,874.457 642.1,874.384 642.153,874.308 642.194,874.229 
	642.238,874.149 642.273,874.065 642.306,873.976 642.339,873.895 642.36,873.805 642.382,873.712 642.401,873.618 642.412,873.524 
	642.418,873.432 642.423,873.333 642.423,871.644 642.423,871.554 642.429,871.455 642.439,871.365 642.456,871.275 
	642.479,871.187 642.502,871.103 642.529,871.01 642.563,870.925 642.6,870.841 642.641,870.762 642.689,870.681 642.736,870.602 
	642.79,870.527 642.842,870.456 642.907,870.384 642.97,870.315 645.395,867.98 647.894,865.742 650.471,863.607 653.118,861.565 
	655.834,859.626 658.618,857.79 661.468,856.063 664.377,854.438 667.346,852.917 670.361,851.513 673.439,850.218 676.559,849.03 
	679.727,847.962 682.938,847.006 686.185,846.167 689.469,845.451 689.469,838.714 "/>
<polygon fill="#BABCBE" stroke="#BABCBE" stroke-width="3.000000e-004" stroke-linejoin="bevel" stroke-miterlimit="2.6131" points="
	635.976,875.2 640.542,875.208 640.542,875.208 638.357,875.208 "/>
<polygon fill="#BABCBE" stroke="#BABCBE" stroke-width="3.000000e-004" stroke-linejoin="bevel" stroke-miterlimit="2.6131" points="
	635.976,875.2 638.357,875.208 638.357,875.208 636.166,875.208 "/>
<polygon fill="#BABCBE" stroke="#BABCBE" stroke-width="3.000000e-004" stroke-linejoin="bevel" stroke-miterlimit="2.6131" points="
	640.738,875.2 640.542,875.208 640.542,875.208 635.976,875.2 "/>
<polygon fill="#BABCBE" stroke="#BABCBE" stroke-width="3.000000e-004" stroke-linejoin="bevel" stroke-miterlimit="2.6131" points="
	640.924,875.174 640.738,875.2 640.738,875.2 635.976,875.2 "/>
<polygon fill="#BABCBE" stroke="#BABCBE" stroke-width="3.000000e-004" stroke-linejoin="bevel" stroke-miterlimit="2.6131" points="
	635.791,875.174 640.924,875.174 640.924,875.174 635.976,875.2 "/>
<polygon fill="#BABCBE" stroke="#BABCBE" stroke-width="3.000000e-004" stroke-linejoin="bevel" stroke-miterlimit="2.6131" points="
	635.608,875.126 640.924,875.174 640.924,875.174 635.791,875.174 "/>
<polygon fill="#BABCBE" stroke="#BABCBE" stroke-width="3.000000e-004" stroke-linejoin="bevel" stroke-miterlimit="2.6131" points="
	641.105,875.126 640.924,875.174 640.924,875.174 635.608,875.126 "/>
<polygon fill="#BABCBE" stroke="#BABCBE" stroke-width="3.000000e-004" stroke-linejoin="bevel" stroke-miterlimit="2.6131" points="
	641.274,875.066 641.105,875.126 641.105,875.126 635.608,875.126 "/>
<polygon fill="#BABCBE" stroke="#BABCBE" stroke-width="3.000000e-004" stroke-linejoin="bevel" stroke-miterlimit="2.6131" points="
	635.439,875.066 641.274,875.066 641.274,875.066 635.608,875.126 "/>
<polygon fill="#BABCBE" stroke="#BABCBE" stroke-width="3.000000e-004" stroke-linejoin="bevel" stroke-miterlimit="2.6131" points="
	635.273,874.984 641.274,875.066 641.274,875.066 635.439,875.066 "/>
<polygon fill="#BABCBE" stroke="#BABCBE" stroke-width="3.000000e-004" stroke-linejoin="bevel" stroke-miterlimit="2.6131" points="
	641.44,874.984 641.274,875.066 641.274,875.066 635.273,874.984 "/>
<polygon fill="#BABCBE" stroke="#BABCBE" stroke-width="3.000000e-004" stroke-linejoin="bevel" stroke-miterlimit="2.6131" points="
	641.593,874.891 641.44,874.984 641.44,874.984 635.273,874.984 "/>
<polygon fill="#BABCBE" stroke="#BABCBE" stroke-width="3.000000e-004" stroke-linejoin="bevel" stroke-miterlimit="2.6131" points="
	635.121,874.891 641.593,874.891 641.593,874.891 635.273,874.984 "/>
<polygon fill="#BABCBE" stroke="#BABCBE" stroke-width="3.000000e-004" stroke-linejoin="bevel" stroke-miterlimit="2.6131" points="
	634.977,874.783 641.593,874.891 641.593,874.891 635.121,874.891 "/>
<polygon fill="#BABCBE" stroke="#BABCBE" stroke-width="3.000000e-004" stroke-linejoin="bevel" stroke-miterlimit="2.6131" points="
	641.737,874.783 641.593,874.891 641.593,874.891 634.977,874.783 "/>
<polygon fill="#BABCBE" stroke="#BABCBE" stroke-width="3.000000e-004" stroke-linejoin="bevel" stroke-miterlimit="2.6131" points="
	641.87,874.661 641.737,874.783 641.737,874.783 634.977,874.783 "/>
<polygon fill="#BABCBE" stroke="#BABCBE" stroke-width="3.000000e-004" stroke-linejoin="bevel" stroke-miterlimit="2.6131" points="
	634.844,874.661 641.87,874.661 641.87,874.661 634.977,874.783 "/>
<polygon fill="#BABCBE" stroke="#BABCBE" stroke-width="3.000000e-004" stroke-linejoin="bevel" stroke-miterlimit="2.6131" points="
	634.721,874.527 641.87,874.661 641.87,874.661 634.844,874.661 "/>
<polygon fill="#BABCBE" stroke="#BABCBE" stroke-width="3.000000e-004" stroke-linejoin="bevel" stroke-miterlimit="2.6131" points="
	641.993,874.527 641.87,874.661 641.87,874.661 634.721,874.527 "/>
<polygon fill="#BABCBE" stroke="#BABCBE" stroke-width="3.000000e-004" stroke-linejoin="bevel" stroke-miterlimit="2.6131" points="
	634.615,874.384 641.993,874.527 641.993,874.527 634.721,874.527 "/>
<polygon fill="#BABCBE" stroke="#BABCBE" stroke-width="3.000000e-004" stroke-linejoin="bevel" stroke-miterlimit="2.6131" points="
	642.1,874.384 641.993,874.527 641.993,874.527 634.615,874.384 "/>
<polygon fill="#BABCBE" stroke="#BABCBE" stroke-width="3.000000e-004" stroke-linejoin="bevel" stroke-miterlimit="2.6131" points="
	634.52,874.229 642.1,874.384 642.1,874.384 634.615,874.384 "/>
<polygon fill="#BABCBE" stroke="#BABCBE" stroke-width="3.000000e-004" stroke-linejoin="bevel" stroke-miterlimit="2.6131" points="
	642.194,874.229 642.1,874.384 642.1,874.384 634.52,874.229 "/>
<polygon fill="#BABCBE" stroke="#BABCBE" stroke-width="3.000000e-004" stroke-linejoin="bevel" stroke-miterlimit="2.6131" points="
	634.44,874.065 642.194,874.229 642.194,874.229 634.52,874.229 "/>
<polygon fill="#BABCBE" stroke="#BABCBE" stroke-width="3.000000e-004" stroke-linejoin="bevel" stroke-miterlimit="2.6131" points="
	642.273,874.065 642.194,874.229 642.194,874.229 634.44,874.065 "/>
<polygon fill="#BABCBE" stroke="#BABCBE" stroke-width="3.000000e-004" stroke-linejoin="bevel" stroke-miterlimit="2.6131" points="
	642.339,873.895 642.273,874.065 642.273,874.065 634.44,874.065 "/>
<polygon fill="#BABCBE" stroke="#BABCBE" stroke-width="3.000000e-004" stroke-linejoin="bevel" stroke-miterlimit="2.6131" points="
	634.376,873.895 642.339,873.895 642.339,873.895 634.44,874.065 "/>
<polygon fill="#BABCBE" stroke="#BABCBE" stroke-width="3.000000e-004" stroke-linejoin="bevel" stroke-miterlimit="2.6131" points="
	642.382,873.712 642.339,873.895 642.339,873.895 634.376,873.895 "/>
<polygon fill="#BABCBE" stroke="#BABCBE" stroke-width="3.000000e-004" stroke-linejoin="bevel" stroke-miterlimit="2.6131" points="
	634.332,873.712 642.382,873.712 642.382,873.712 634.376,873.895 "/>
<polygon fill="#BABCBE" stroke="#BABCBE" stroke-width="3.000000e-004" stroke-linejoin="bevel" stroke-miterlimit="2.6131" points="
	634.302,873.524 642.382,873.712 642.382,873.712 634.332,873.712 "/>
<polygon fill="#BABCBE" stroke="#BABCBE" stroke-width="3.000000e-004" stroke-linejoin="bevel" stroke-miterlimit="2.6131" points="
	642.412,873.524 642.382,873.712 642.382,873.712 634.302,873.524 "/>
<polygon fill="#BABCBE" stroke="#BABCBE" stroke-width="3.000000e-004" stroke-linejoin="bevel" stroke-miterlimit="2.6131" points="
	642.423,873.333 642.412,873.524 642.412,873.524 634.302,873.524 "/>
<polygon fill="#BABCBE" stroke="#BABCBE" stroke-width="3.000000e-004" stroke-linejoin="bevel" stroke-miterlimit="2.6131" points="
	634.291,873.333 642.423,873.333 642.423,873.333 634.302,873.524 "/>
<polygon fill="#BABCBE" stroke="#BABCBE" stroke-width="3.000000e-004" stroke-linejoin="bevel" stroke-miterlimit="2.6131" points="
	634.291,871.644 642.423,873.333 642.423,873.333 634.291,873.333 "/>
<polygon fill="#BABCBE" stroke="#BABCBE" stroke-width="3.000000e-004" stroke-linejoin="bevel" stroke-miterlimit="2.6131" points="
	642.423,871.531 642.423,873.333 642.423,873.333 634.291,871.644 "/>
<polygon fill="#BABCBE" stroke="#BABCBE" stroke-width="3.000000e-004" stroke-linejoin="bevel" stroke-miterlimit="2.6131" points="
	634.286,871.409 642.423,871.531 642.423,871.531 634.291,871.644 "/>
<polygon fill="#BABCBE" stroke="#BABCBE" stroke-width="3.000000e-004" stroke-linejoin="bevel" stroke-miterlimit="2.6131" points="
	642.461,871.228 642.423,871.531 642.423,871.531 634.286,871.409 "/>
<polygon fill="#BABCBE" stroke="#BABCBE" stroke-width="3.000000e-004" stroke-linejoin="bevel" stroke-miterlimit="2.6131" points="
	634.207,871.053 642.461,871.228 642.461,871.228 634.286,871.409 "/>
<polygon fill="#BABCBE" stroke="#BABCBE" stroke-width="3.000000e-004" stroke-linejoin="bevel" stroke-miterlimit="2.6131" points="
	642.572,870.882 642.461,871.228 642.461,871.228 634.207,871.053 "/>
<polygon fill="#BABCBE" stroke="#BABCBE" stroke-width="3.000000e-004" stroke-linejoin="bevel" stroke-miterlimit="2.6131" points="
	634.058,870.713 642.572,870.882 642.572,870.882 634.207,871.053 "/>
<polygon fill="#BABCBE" stroke="#BABCBE" stroke-width="3.000000e-004" stroke-linejoin="bevel" stroke-miterlimit="2.6131" points="
	642.752,870.561 642.572,870.882 642.572,870.882 634.058,870.713 "/>
<polygon fill="#BABCBE" stroke="#BABCBE" stroke-width="3.000000e-004" stroke-linejoin="bevel" stroke-miterlimit="2.6131" points="
	633.845,870.415 642.752,870.561 642.752,870.561 634.058,870.713 "/>
<polygon fill="#BABCBE" stroke="#BABCBE" stroke-width="3.000000e-004" stroke-linejoin="bevel" stroke-miterlimit="2.6131" points="
	642.935,870.351 642.752,870.561 642.752,870.561 633.845,870.415 "/>
<polygon fill="#BABCBE" stroke="#BABCBE" stroke-width="3.000000e-004" stroke-linejoin="bevel" stroke-miterlimit="2.6131" points="
	645.395,867.98 642.935,870.351 642.935,870.351 633.845,870.415 "/>
<polygon fill="#BABCBE" stroke="#BABCBE" stroke-width="3.000000e-004" stroke-linejoin="bevel" stroke-miterlimit="2.6131" points="
	631.325,867.98 645.395,867.98 645.395,867.98 633.845,870.415 "/>
<polygon fill="#BABCBE" stroke="#BABCBE" stroke-width="3.000000e-004" stroke-linejoin="bevel" stroke-miterlimit="2.6131" points="
	647.894,865.742 645.395,867.98 645.395,867.98 631.325,867.98 "/>
<polygon fill="#BABCBE" stroke="#BABCBE" stroke-width="3.000000e-004" stroke-linejoin="bevel" stroke-miterlimit="2.6131" points="
	628.821,865.742 647.894,865.742 647.894,865.742 631.325,867.98 "/>
<polygon fill="#BABCBE" stroke="#BABCBE" stroke-width="3.000000e-004" stroke-linejoin="bevel" stroke-miterlimit="2.6131" points="
	638.357,864.628 647.894,865.742 647.894,865.742 628.821,865.742 "/>
<polygon fill="#BABCBE" stroke="#BABCBE" stroke-width="3.000000e-004" stroke-linejoin="bevel" stroke-miterlimit="2.6131" points="
	626.244,863.607 638.357,864.628 638.357,864.628 628.821,865.742 "/>
<polygon fill="#BABCBE" stroke="#BABCBE" stroke-width="3.000000e-004" stroke-linejoin="bevel" stroke-miterlimit="2.6131" points="
	650.471,863.607 647.894,865.742 647.894,865.742 638.357,864.628 "/>
<polygon fill="#BABCBE" stroke="#BABCBE" stroke-width="3.000000e-004" stroke-linejoin="bevel" stroke-miterlimit="2.6131" points="
	653.118,861.565 650.471,863.607 650.471,863.607 638.357,864.628 "/>
<polygon fill="#BABCBE" stroke="#BABCBE" stroke-width="3.000000e-004" stroke-linejoin="bevel" stroke-miterlimit="2.6131" points="
	623.596,861.565 638.357,864.628 638.357,864.628 626.244,863.607 "/>
<polygon fill="#BABCBE" stroke="#BABCBE" stroke-width="3.000000e-004" stroke-linejoin="bevel" stroke-miterlimit="2.6131" points="
	632.797,859.938 638.357,864.628 638.357,864.628 623.596,861.565 "/>
<polygon fill="#BABCBE" stroke="#BABCBE" stroke-width="3.000000e-004" stroke-linejoin="bevel" stroke-miterlimit="2.6131" points="
	643.917,859.938 653.118,861.565 653.118,861.565 638.357,864.628 "/>
<polygon fill="#BABCBE" stroke="#BABCBE" stroke-width="3.000000e-004" stroke-linejoin="bevel" stroke-miterlimit="2.6131" points="
	655.834,859.626 653.118,861.565 653.118,861.565 643.917,859.938 "/>
<polygon fill="#BABCBE" stroke="#BABCBE" stroke-width="3.000000e-004" stroke-linejoin="bevel" stroke-miterlimit="2.6131" points="
	620.88,859.626 632.797,859.938 632.797,859.938 623.596,861.565 "/>
<polygon fill="#BABCBE" stroke="#BABCBE" stroke-width="3.000000e-004" stroke-linejoin="bevel" stroke-miterlimit="2.6131" points="
	618.096,857.79 632.797,859.938 632.797,859.938 620.88,859.626 "/>
<polygon fill="#BABCBE" stroke="#BABCBE" stroke-width="3.000000e-004" stroke-linejoin="bevel" stroke-miterlimit="2.6131" points="
	658.618,857.79 655.834,859.626 655.834,859.626 643.917,859.938 "/>
<polygon fill="#BABCBE" stroke="#BABCBE" stroke-width="3.000000e-004" stroke-linejoin="bevel" stroke-miterlimit="2.6131" points="
	615.246,856.063 632.797,859.938 632.797,859.938 618.096,857.79 "/>
<polygon fill="#BABCBE" stroke="#BABCBE" stroke-width="3.000000e-004" stroke-linejoin="bevel" stroke-miterlimit="2.6131" points="
	661.468,856.063 658.618,857.79 658.618,857.79 643.917,859.938 "/>
<polygon fill="#BABCBE" stroke="#BABCBE" stroke-width="3.000000e-004" stroke-linejoin="bevel" stroke-miterlimit="2.6131" points="
	626.957,855.645 632.797,859.938 632.797,859.938 615.246,856.063 "/>
<polygon fill="#BABCBE" stroke="#BABCBE" stroke-width="3.000000e-004" stroke-linejoin="bevel" stroke-miterlimit="2.6131" points="
	649.758,855.645 661.468,856.063 661.468,856.063 643.917,859.938 "/>
<polygon fill="#BABCBE" stroke="#BABCBE" stroke-width="3.000000e-004" stroke-linejoin="bevel" stroke-miterlimit="2.6131" points="
	664.377,854.438 661.468,856.063 661.468,856.063 649.758,855.645 "/>
<polygon fill="#BABCBE" stroke="#BABCBE" stroke-width="3.000000e-004" stroke-linejoin="bevel" stroke-miterlimit="2.6131" points="
	612.337,854.438 626.957,855.645 626.957,855.645 615.246,856.063 "/>
<polygon fill="#BABCBE" stroke="#BABCBE" stroke-width="3.000000e-004" stroke-linejoin="bevel" stroke-miterlimit="2.6131" points="
	667.346,852.917 664.377,854.438 664.377,854.438 649.758,855.645 "/>
<polygon fill="#BABCBE" stroke="#BABCBE" stroke-width="3.000000e-004" stroke-linejoin="bevel" stroke-miterlimit="2.6131" points="
	609.373,852.917 626.957,855.645 626.957,855.645 612.337,854.438 "/>
<polygon fill="#BABCBE" stroke="#BABCBE" stroke-width="3.000000e-004" stroke-linejoin="bevel" stroke-miterlimit="2.6131" points="
	620.858,851.753 626.957,855.645 626.957,855.645 609.373,852.917 "/>
<polygon fill="#BABCBE" stroke="#BABCBE" stroke-width="3.000000e-004" stroke-linejoin="bevel" stroke-miterlimit="2.6131" points="
	655.856,851.753 667.346,852.917 667.346,852.917 649.758,855.645 "/>
<polygon fill="#BABCBE" stroke="#BABCBE" stroke-width="3.000000e-004" stroke-linejoin="bevel" stroke-miterlimit="2.6131" points="
	606.347,851.513 620.858,851.753 620.858,851.753 609.373,852.917 "/>
<polygon fill="#BABCBE" stroke="#BABCBE" stroke-width="3.000000e-004" stroke-linejoin="bevel" stroke-miterlimit="2.6131" points="
	670.361,851.513 667.346,852.917 667.346,852.917 655.856,851.753 "/>
<polygon fill="#BABCBE" stroke="#BABCBE" stroke-width="3.000000e-004" stroke-linejoin="bevel" stroke-miterlimit="2.6131" points="
	603.274,850.218 620.858,851.753 620.858,851.753 606.347,851.513 "/>
<polygon fill="#BABCBE" stroke="#BABCBE" stroke-width="3.000000e-004" stroke-linejoin="bevel" stroke-miterlimit="2.6131" points="
	673.439,850.218 670.361,851.513 670.361,851.513 655.856,851.753 "/>
<polygon fill="#BABCBE" stroke="#BABCBE" stroke-width="3.000000e-004" stroke-linejoin="bevel" stroke-miterlimit="2.6131" points="
	676.559,849.03 673.439,850.218 673.439,850.218 655.856,851.753 "/>
<polygon fill="#BABCBE" stroke="#BABCBE" stroke-width="3.000000e-004" stroke-linejoin="bevel" stroke-miterlimit="2.6131" points="
	600.156,849.03 620.858,851.753 620.858,851.753 603.274,850.218 "/>
<polygon fill="#BABCBE" stroke="#BABCBE" stroke-width="3.000000e-004" stroke-linejoin="bevel" stroke-miterlimit="2.6131" points="
	662.191,848.271 676.559,849.03 676.559,849.03 655.856,851.753 "/>
<polygon fill="#BABCBE" stroke="#BABCBE" stroke-width="3.000000e-004" stroke-linejoin="bevel" stroke-miterlimit="2.6131" points="
	614.521,848.271 620.858,851.753 620.858,851.753 600.156,849.03 "/>
<polygon fill="#BABCBE" stroke="#BABCBE" stroke-width="3.000000e-004" stroke-linejoin="bevel" stroke-miterlimit="2.6131" points="
	596.988,847.962 614.521,848.271 614.521,848.271 600.156,849.03 "/>
<polygon fill="#BABCBE" stroke="#BABCBE" stroke-width="3.000000e-004" stroke-linejoin="bevel" stroke-miterlimit="2.6131" points="
	679.727,847.962 676.559,849.03 676.559,849.03 662.191,848.271 "/>
<polygon fill="#BABCBE" stroke="#BABCBE" stroke-width="3.000000e-004" stroke-linejoin="bevel" stroke-miterlimit="2.6131" points="
	593.776,847.006 614.521,848.271 614.521,848.271 596.988,847.962 "/>
<polygon fill="#BABCBE" stroke="#BABCBE" stroke-width="3.000000e-004" stroke-linejoin="bevel" stroke-miterlimit="2.6131" points="
	682.938,847.006 679.727,847.962 679.727,847.962 662.191,848.271 "/>
<polygon fill="#BABCBE" stroke="#BABCBE" stroke-width="3.000000e-004" stroke-linejoin="bevel" stroke-miterlimit="2.6131" points="
	686.185,846.167 682.938,847.006 682.938,847.006 662.191,848.271 "/>
<polygon fill="#BABCBE" stroke="#BABCBE" stroke-width="3.000000e-004" stroke-linejoin="bevel" stroke-miterlimit="2.6131" points="
	590.53,846.167 614.521,848.271 614.521,848.271 593.776,847.006 "/>
<polygon fill="#BABCBE" stroke="#BABCBE" stroke-width="3.000000e-004" stroke-linejoin="bevel" stroke-miterlimit="2.6131" points="
	587.245,845.451 614.521,848.271 614.521,848.271 590.53,846.167 "/>
<polygon fill="#BABCBE" stroke="#BABCBE" stroke-width="3.000000e-004" stroke-linejoin="bevel" stroke-miterlimit="2.6131" points="
	689.469,845.451 686.185,846.167 686.185,846.167 662.191,848.271 "/>
<polygon fill="#BABCBE" stroke="#BABCBE" stroke-width="3.000000e-004" stroke-linejoin="bevel" stroke-miterlimit="2.6131" points="
	607.975,845.218 614.521,848.271 614.521,848.271 587.245,845.451 "/>
<polygon fill="#BABCBE" stroke="#BABCBE" stroke-width="3.000000e-004" stroke-linejoin="bevel" stroke-miterlimit="2.6131" points="
	668.739,845.218 689.469,845.451 689.469,845.451 662.191,848.271 "/>
<polygon fill="#BABCBE" stroke="#BABCBE" stroke-width="3.000000e-004" stroke-linejoin="bevel" stroke-miterlimit="2.6131" points="
	601.229,842.603 607.975,845.218 607.975,845.218 587.245,845.451 "/>
<polygon fill="#BABCBE" stroke="#BABCBE" stroke-width="3.000000e-004" stroke-linejoin="bevel" stroke-miterlimit="2.6131" points="
	675.486,842.603 689.469,845.451 689.469,845.451 668.739,845.218 "/>
<polygon fill="#BABCBE" stroke="#BABCBE" stroke-width="3.000000e-004" stroke-linejoin="bevel" stroke-miterlimit="2.6131" points="
	682.401,840.429 689.469,845.451 689.469,845.451 675.486,842.603 "/>
<polygon fill="#BABCBE" stroke="#BABCBE" stroke-width="3.000000e-004" stroke-linejoin="bevel" stroke-miterlimit="2.6131" points="
	594.308,840.429 601.229,842.603 601.229,842.603 587.245,845.451 "/>
<polygon fill="#BABCBE" stroke="#BABCBE" stroke-width="3.000000e-004" stroke-linejoin="bevel" stroke-miterlimit="2.6131" points="
	689.469,838.714 689.469,845.451 689.469,845.451 682.401,840.429 "/>
<polygon fill="#BABCBE" stroke="#BABCBE" stroke-width="3.000000e-004" stroke-linejoin="bevel" stroke-miterlimit="2.6131" points="
	587.245,838.714 594.308,840.429 594.308,840.429 587.245,845.451 "/>
<path fill="#295CA8" stroke="#295CA8" stroke-width="0.216" stroke-miterlimit="2.6131" d="M638.357,698.742
	c45.275,0,82.195,36.922,82.195,82.194c0,21.287-8.164,40.724-21.521,55.349l-4.065-4.064c12.314-13.578,19.831-31.58,19.831-51.284
	c0-42.104-34.337-76.44-76.439-76.44c-42.104,0-76.441,34.337-76.441,76.44c0,19.636,7.468,37.581,19.709,51.143l-4.071,4.074
	c-13.277-14.611-21.394-33.991-21.394-55.217C556.16,735.664,593.085,698.742,638.357,698.742L638.357,698.742z"/>
</svg>
